<?xml version="1.0" encoding="iso-8859-1"?>
<!-- Generator: Adobe Illustrator 19.0.0, SVG Export Plug-In . SVG Version: 6.00 Build 0)  -->
<svg height="512" width="512" version="1.1" id="Capa_1" xmlns="http://www.w3.org/2000/svg" xmlns:xlink="http://www.w3.org/1999/xlink" x="0px" y="0px"
	 viewBox="0 0 512 512" style="enable-background:new 0 0 512 512;" xml:space="preserve">
<!-- <path style="fill:#A5F6FF;" d="M209.108,325.007c-1.545,0-3.116-0.239-4.664-0.742c-25.049-8.149-47.256-21.786-66.002-40.533
	c-64.821-64.821-64.821-170.295,0-235.116s170.295-64.821,235.116,0s64.821,170.295,0,235.116
	c-18.745,18.745-40.951,32.382-66,40.532c-7.913,2.571-16.415-1.755-18.989-9.667c-2.574-7.913,1.754-16.415,9.667-18.988
	c20.488-6.666,38.662-17.83,54.015-33.183c53.072-53.073,53.072-139.429,0-192.501c-53.073-53.072-139.429-53.072-192.501,0
	c-53.072,53.073-53.072,139.429,0,192.501c15.355,15.354,33.529,26.519,54.017,33.183c7.913,2.574,12.241,11.076,9.667,18.989
	C221.363,320.962,215.458,325.007,209.108,325.007z"/> -->
<!-- <path style="fill:#00E2FF;" d="M255.715,0.003v30.12c34.952-0.072,69.927,13.193,96.535,39.801
	c53.072,53.073,53.072,139.429,0,192.501c-15.353,15.353-33.527,26.518-54.015,33.183c-7.913,2.574-12.241,11.075-9.667,18.988
	c2.574,7.912,11.075,12.238,18.989,9.667c25.049-8.149,47.255-21.786,66-40.532c64.821-64.821,64.821-170.295,0-235.116
	C341.075,16.132,298.384-0.07,255.715,0.003z"/> -->
<!-- <path style="fill:#A5F6FF;" d="M279.731,266.161c-6.595,0.001-12.65-4.364-14.505-11.028c-2.233-8.016,2.455-16.325,10.472-18.558
	c12.03-3.351,23.091-9.824,31.986-18.72c13.805-13.805,21.408-32.16,21.408-51.683s-7.603-37.877-21.408-51.683
	c-28.498-28.498-74.867-28.498-103.365,0c-13.805,13.805-21.408,32.16-21.408,51.683s7.603,37.877,21.408,51.683
	c8.896,8.896,19.956,15.368,31.984,18.719c8.016,2.234,12.704,10.542,10.472,18.558c-2.233,8.015-10.544,12.702-18.557,10.472
	c-17.018-4.741-32.649-13.884-45.206-26.44c-19.497-19.496-30.233-45.418-30.233-72.99s10.737-53.495,30.234-72.99
	c40.247-40.248,105.734-40.248,145.981,0c19.497,19.496,30.234,45.418,30.234,72.99s-10.737,53.495-30.234,72.99
	c-12.556,12.558-28.188,21.7-45.208,26.441C282.431,265.982,281.069,266.161,279.731,266.161z"/>
<path style="fill:#00E2FF;" d="M255.715,63v30.124c18.812-0.073,37.646,7.045,51.968,21.366
	c13.805,13.805,21.408,32.16,21.408,51.683s-7.603,37.877-21.408,51.683c-8.895,8.896-19.956,15.369-31.986,18.72
	c-8.016,2.234-12.704,10.542-10.472,18.558c1.856,6.664,7.91,11.028,14.505,11.028c1.338,0,2.7-0.18,4.051-0.556
	c17.02-4.741,32.652-13.884,45.208-26.441c19.497-19.496,30.234-45.418,30.234-72.99s-10.737-53.495-30.234-72.99
	C308.794,72.986,282.243,62.927,255.715,63z"/> -->
<path style="fill:#FFA358;" d="M390.295,502.943c0.034-0.079,0.059-0.163,0.092-0.242c0.303-0.729,0.543-1.471,0.725-2.22
	c0.025-0.101,0.058-0.199,0.081-0.301c0.069-0.311,0.114-0.625,0.162-0.938c0.027-0.174,0.065-0.346,0.086-0.52
	c0.03-0.251,0.039-0.502,0.056-0.754c0.017-0.242,0.043-0.482,0.048-0.725c0.004-0.187-0.01-0.372-0.013-0.557
	c-0.005-0.306-0.005-0.613-0.029-0.921c-0.009-0.119-0.032-0.236-0.044-0.355c-0.073-0.718-0.199-1.437-0.38-2.153
	c-0.03-0.119-0.048-0.239-0.081-0.357c-0.039-0.142-0.095-0.282-0.14-0.424c-0.105-0.34-0.211-0.679-0.34-1.01
	c-0.007-0.018-0.011-0.036-0.018-0.054L270.021,185.242c-2.267-5.761-7.829-9.549-14.02-9.549c-6.192,0-11.753,3.788-14.02,9.549
	l-40.618,103.222c-0.015,0.038-0.03,0.075-0.045,0.113L121.499,491.41c-0.007,0.018-0.011,0.036-0.018,0.054
	c-0.129,0.331-0.235,0.671-0.34,1.01c-0.044,0.142-0.1,0.282-0.14,0.424c-0.032,0.118-0.051,0.238-0.081,0.357
	c-0.181,0.715-0.306,1.434-0.38,2.153c-0.012,0.119-0.034,0.236-0.044,0.355c-0.024,0.307-0.024,0.614-0.029,0.921
	c-0.003,0.187-0.017,0.372-0.013,0.557c0.005,0.243,0.031,0.484,0.048,0.725c0.017,0.251,0.026,0.503,0.056,0.754
	c0.021,0.175,0.059,0.347,0.086,0.52c0.048,0.313,0.093,0.627,0.162,0.938c0.022,0.101,0.056,0.2,0.081,0.301
	c0.182,0.749,0.422,1.491,0.725,2.22c0.033,0.079,0.057,0.163,0.092,0.242c0.059,0.135,0.134,0.265,0.197,0.399
	c0.152,0.322,0.304,0.644,0.478,0.955c0.009,0.017,0.016,0.034,0.025,0.05c0.2,0.354,0.415,0.692,0.638,1.023
	c0.064,0.095,0.134,0.189,0.201,0.282c0.196,0.276,0.4,0.544,0.612,0.805c0.071,0.087,0.14,0.175,0.213,0.26
	c0.281,0.329,0.573,0.647,0.877,0.947c0.045,0.044,0.093,0.085,0.14,0.13c0.278,0.267,0.567,0.521,0.862,0.764
	c0.08,0.066,0.16,0.133,0.241,0.197c0.348,0.274,0.704,0.535,1.072,0.775c0.038,0.025,0.079,0.048,0.119,0.072
	c0.353,0.226,0.715,0.435,1.084,0.63c0.076,0.04,0.152,0.081,0.228,0.121c0.41,0.208,0.828,0.399,1.253,0.568
	c0.02,0.008,0.038,0.018,0.058,0.026c0.043,0.017,0.087,0.027,0.132,0.044c0.381,0.146,0.767,0.275,1.158,0.39
	c0.086,0.025,0.172,0.053,0.258,0.077c0.407,0.111,0.819,0.204,1.233,0.28c0.135,0.025,0.269,0.045,0.404,0.066
	c0.325,0.051,0.653,0.092,0.982,0.122c0.113,0.01,0.225,0.025,0.338,0.033c0.342,0.023,0.683,0.036,1.027,0.036
	c0.069,0,0.139-0.006,0.208-0.007c0.117-0.002,0.233-0.006,0.35-0.011c0.392-0.014,0.784-0.041,1.176-0.087
	c0.035-0.004,0.071-0.006,0.106-0.01c0.432-0.053,0.863-0.132,1.292-0.223c0.083-0.018,0.166-0.037,0.249-0.056
	c0.421-0.097,0.841-0.209,1.258-0.345c0.003-0.001,0.007-0.002,0.01-0.003c0.409-0.134,0.813-0.29,1.213-0.46
	c0.102-0.043,0.204-0.089,0.305-0.136c0.316-0.143,0.63-0.297,0.94-0.463c0.081-0.044,0.166-0.083,0.246-0.129
	c0.017-0.009,0.034-0.017,0.05-0.026l113.062-63.961l113.024,63.939c0.01,0.006,0.021,0.011,0.031,0.017l0.008,0.004
	c0.307,0.174,0.62,0.335,0.934,0.485c0.06,0.029,0.124,0.053,0.185,0.081c0.267,0.124,0.534,0.24,0.806,0.347
	c0.071,0.028,0.145,0.052,0.217,0.079c0.265,0.099,0.531,0.193,0.8,0.276c0.078,0.024,0.157,0.046,0.236,0.069
	c0.264,0.078,0.529,0.149,0.796,0.212c0.087,0.021,0.174,0.04,0.261,0.059c0.261,0.056,0.522,0.105,0.784,0.148
	c0.094,0.015,0.188,0.031,0.282,0.045c0.263,0.037,0.526,0.065,0.789,0.089c0.093,0.008,0.185,0.02,0.278,0.026
	c0.328,0.023,0.658,0.036,0.986,0.037c0.023,0,0.046,0.003,0.07,0.003c0.038,0,0.076-0.005,0.115-0.005
	c0.359-0.003,0.716-0.021,1.073-0.049c0.144-0.011,0.287-0.027,0.432-0.042c0.296-0.032,0.592-0.074,0.885-0.124
	c0.116-0.02,0.231-0.034,0.347-0.057c0.394-0.076,0.782-0.171,1.168-0.277c0.108-0.03,0.217-0.064,0.325-0.097
	c0.342-0.102,0.679-0.218,1.013-0.345c0.051-0.02,0.104-0.032,0.156-0.053c0.021-0.008,0.04-0.02,0.062-0.028
	c0.423-0.168,0.837-0.357,1.244-0.564c0.081-0.041,0.162-0.085,0.242-0.128c0.362-0.192,0.716-0.396,1.063-0.618
	c0.044-0.028,0.091-0.054,0.136-0.083c0.365-0.239,0.717-0.497,1.062-0.768c0.086-0.068,0.17-0.138,0.255-0.208
	c0.289-0.238,0.571-0.487,0.844-0.748c0.05-0.049,0.104-0.094,0.155-0.144c0.302-0.298,0.592-0.614,0.871-0.941
	c0.075-0.087,0.146-0.178,0.219-0.267c0.21-0.257,0.412-0.523,0.606-0.798c0.068-0.095,0.139-0.19,0.204-0.287
	c0.223-0.33,0.438-0.669,0.637-1.022c0.009-0.017,0.016-0.034,0.025-0.05c0.174-0.311,0.326-0.633,0.478-0.955
	C390.161,503.209,390.237,503.078,390.295,502.943z M222.056,318.167l8.792,6.871l-16.768,13.398L222.056,318.167z M255.253,344.108
	l50.309,39.314l-49.562,28.039l-49.789-28.167L255.253,344.108z M279.451,324.774l9.961-7.959l8.947,22.734L279.451,324.774z
	 M256,231.906l21.865,55.563l-22.819,18.232l-21.479-16.786L256,231.906z M165.109,462.879l21.956-55.794l38.334,21.686
	L165.109,462.879z M324.935,407.085l21.956,55.794l-60.29-34.108L324.935,407.085z"/>
<path style="fill:#444444;" d="M256,205.808c-10.154,0-20.308-3.865-28.04-11.596c-7.49-7.49-11.615-17.448-11.615-28.04
	c0-10.592,4.124-20.549,11.615-28.039c7.489-7.49,17.448-11.615,28.04-11.615c10.592,0,20.549,4.124,28.04,11.615l0,0l0,0
	c7.489,7.489,11.615,17.447,11.615,28.039c0,10.592-4.124,20.549-11.615,28.04C276.309,201.943,266.153,205.808,256,205.808z"/>
<path style="fill:#FF8273;" d="M391.503,495.764c-0.009-0.119-0.032-0.236-0.044-0.355c-0.073-0.718-0.199-1.437-0.38-2.153
	c-0.03-0.119-0.048-0.239-0.081-0.357c-0.039-0.142-0.095-0.282-0.14-0.424c-0.105-0.34-0.211-0.679-0.34-1.01
	c-0.007-0.018-0.011-0.036-0.018-0.054l-120.48-306.169c-2.267-5.761-7.829-9.549-14.02-9.549c-0.095,0-0.19,0.009-0.284,0.011
	v56.926l0.284-0.723l21.865,55.563l-22.149,17.698v39.302l49.846,38.952L256,411.459l-0.284-0.161v34.944l0.284-0.161
	l113.024,63.939c0.01,0.006,0.021,0.011,0.031,0.017l0.008,0.004c0.307,0.174,0.62,0.334,0.934,0.485
	c0.06,0.029,0.124,0.053,0.185,0.081c0.267,0.124,0.534,0.24,0.806,0.347c0.071,0.028,0.145,0.052,0.217,0.079
	c0.265,0.099,0.531,0.193,0.8,0.276c0.078,0.024,0.157,0.046,0.236,0.069c0.264,0.078,0.529,0.149,0.796,0.212
	c0.087,0.021,0.174,0.04,0.261,0.059c0.261,0.056,0.522,0.105,0.785,0.148c0.094,0.015,0.188,0.031,0.282,0.045
	c0.263,0.037,0.526,0.065,0.79,0.089c0.093,0.008,0.185,0.02,0.278,0.026c0.328,0.023,0.658,0.036,0.986,0.037
	c0.023,0,0.046,0.003,0.07,0.003c0.038,0,0.076-0.005,0.115-0.005c0.359-0.003,0.716-0.021,1.073-0.049
	c0.144-0.011,0.287-0.027,0.432-0.042c0.296-0.032,0.592-0.074,0.885-0.124c0.115-0.02,0.231-0.034,0.347-0.057
	c0.394-0.076,0.782-0.171,1.168-0.277c0.108-0.03,0.217-0.064,0.325-0.097c0.341-0.102,0.679-0.218,1.012-0.345
	c0.051-0.02,0.104-0.032,0.156-0.053c0.021-0.008,0.04-0.02,0.062-0.028c0.423-0.168,0.837-0.357,1.244-0.564
	c0.081-0.041,0.162-0.085,0.242-0.128c0.362-0.192,0.716-0.396,1.063-0.618c0.044-0.028,0.091-0.054,0.136-0.083
	c0.365-0.239,0.717-0.497,1.062-0.768c0.086-0.068,0.17-0.138,0.255-0.208c0.289-0.238,0.571-0.487,0.844-0.748
	c0.05-0.049,0.104-0.094,0.155-0.144c0.302-0.298,0.592-0.614,0.871-0.941c0.075-0.087,0.146-0.178,0.219-0.267
	c0.21-0.257,0.412-0.523,0.606-0.798c0.068-0.095,0.139-0.19,0.204-0.287c0.223-0.33,0.438-0.669,0.637-1.022
	c0.009-0.017,0.016-0.034,0.025-0.05c0.174-0.311,0.326-0.633,0.478-0.955c0.063-0.134,0.138-0.264,0.197-0.399
	c0.034-0.079,0.059-0.163,0.092-0.242c0.303-0.729,0.543-1.471,0.725-2.22c0.025-0.101,0.058-0.199,0.081-0.301
	c0.069-0.311,0.113-0.625,0.162-0.938c0.027-0.174,0.065-0.346,0.086-0.52c0.03-0.251,0.039-0.502,0.056-0.754
	c0.017-0.242,0.043-0.482,0.048-0.725c0.004-0.187-0.01-0.372-0.013-0.557C391.528,496.377,391.528,496.071,391.503,495.764z
	 M279.451,324.774l9.961-7.959l8.947,22.734L279.451,324.774z M286.599,428.771l38.334-21.686l21.956,55.794L286.599,428.771z"/>
<path style="fill:#282828;" d="M256,126.52c-0.095,0-0.19,0.006-0.284,0.007v79.275c0.094,0.001,0.19,0.007,0.284,0.007
	c10.154,0,20.309-3.865,28.04-11.596c7.489-7.49,11.615-17.448,11.615-28.04s-4.124-20.549-11.615-28.039
	C276.55,130.644,266.591,126.52,256,126.52z"/>
<g>
</g>
<g>
</g>
<g>
</g>
<g>
</g>
<g>
</g>
<g>
</g>
<g>
</g>
<g>
</g>
<g>
</g>
<g>
</g>
<g>
</g>
<g>
</g>
<g>
</g>
<g>
</g>
<g>
</g>
</svg>
