<?xml version="1.0" ?><svg height="512" width="512" id="Layer_1" style="enable-background:new 0 0 30 30;" version="1.1" viewBox="0 0 30 30" xml:space="preserve" xmlns="http://www.w3.org/2000/svg" xmlns:xlink="http://www.w3.org/1999/xlink"><style type="text/css">
	.st0{fill:#F0C419;}
	.st1{fill:#F78A68;}
	.st2{fill:#B5E06C;}
</style><g><path class="st0" d="M12.785,8.327c0,0,2.633-1.12,2.743-1.662c0,0,1.986,2,2.798,1.511c0,0-0.708,2.614,0,3.385   c0,0-2.259,0.813-2.713,1.667c0,0-2.266-1.896-2.829-1.563V8.327z"/><path class="st1" d="M25.171,10.054c0-1.884-1.629-3.41-3.638-3.41c-0.079,0-0.152,0.017-0.23,0.022   c0.368-0.526,0.586-1.152,0.586-1.828c0-1.844-1.595-3.339-3.562-3.339c-1.372,0-2.549,0.735-3.144,1.801   c-0.593-1.593-1.867-2.978-4.606-1.238c0,0-2.375,2.688-1.125,4.25l1.44,0.972c-0.381-0.15-0.8-0.234-1.239-0.234   c-1.77,0-3.206,1.345-3.206,3.005s1.435,3.005,3.206,3.005c1.77,0,3.206-1.345,3.206-3.005c0-0.776-0.322-1.476-0.837-2.009   l0.556,0.375c0,0,2.202-0.387,2.904-1.594c0.649,0.815,1.677,1.35,2.846,1.35c0.062,0,0.12-0.014,0.182-0.017   c-0.388,0.542-0.615,1.194-0.615,1.895c0,0.676,0.216,1.302,0.578,1.831c-1.852,0.092-3.328,1.516-3.328,3.276   c0,1.819,1.573,3.293,3.513,3.293s3.513-1.474,3.513-3.293c0-0.628-0.198-1.208-0.523-1.708   C23.602,13.395,25.171,11.901,25.171,10.054z"/><ellipse class="st1" cx="12.605" cy="15.161" rx="3.364" ry="3.153"/><path class="st2" d="M5.244,17.249c0,0,4.458-0.458,5.625,3.958C10.869,21.207,6.244,22.415,5.244,17.249z"/><path class="st2" d="M21.007,19.909c0,0-1.451,4.484-6.509,3.551C14.498,23.46,15.248,18.467,21.007,19.909z"/><g><path d="M25.313,10.189c0.063-1.016-0.274-1.996-0.948-2.758c-0.604-0.685-1.417-1.121-2.312-1.248    c0.637-1.641,0.069-3.539-1.441-4.541c-1.663-1.102-3.886-0.723-5.099,0.82c-1.103-1.372-3.031-1.83-4.652-1.022    c-1.788,0.89-2.57,3.004-1.839,4.826c-1.74,0.269-3.1,1.709-3.211,3.518c-0.063,1.016,0.274,1.996,0.948,2.758    c0.605,0.685,1.417,1.121,2.312,1.248c-0.637,1.641-0.07,3.54,1.441,4.54c0.632,0.419,1.356,0.636,2.097,0.636    c0.221,0,0.443-0.028,0.664-0.067c-0.769,0.588-1.556,1.259-1.781,2.242l-0.232-0.154c0.178-0.973-0.932-2.33-2.299-3.296    c-1.676-1.183-3.837-0.94-3.928-0.931c-0.108,0.013-0.206,0.069-0.271,0.156c-0.065,0.086-0.093,0.195-0.076,0.303    c0.016,0.102,0.407,2.492,2.095,3.684c0.973,0.687,2.069,1.051,2.938,1.051c0.446,0,0.829-0.098,1.107-0.296l0.633,0.42    c0,0,0.001,0,0.001,0c0.181,1.244,1.188,1.837,2.15,2.33c0.002,0.001,0.004,0.002,0.006,0.003    c0.057,0.029,0.115,0.059,0.171,0.088c1.005,0.512,1.873,0.953,1.928,1.99c0.034,0.653-0.244,1.174-0.959,1.798    c-0.167,0.146-0.184,0.398-0.039,0.564c0.079,0.091,0.19,0.138,0.301,0.138c0.093,0,0.187-0.033,0.263-0.099    c0.606-0.528,1.294-1.283,1.232-2.444c-0.067-1.283-0.968-1.919-1.898-2.417l0.154-0.095c0.258,0.146,0.579,0.223,0.954,0.223    c0.954,0,2.196-0.429,3.273-1.05c1.947-1.125,2.702-3.389,2.733-3.484c0.034-0.108,0.022-0.226-0.034-0.324    c-0.057-0.098-0.152-0.168-0.264-0.191c-0.099-0.021-2.436-0.498-4.384,0.626c-1.658,0.957-3.093,2.477-2.776,3.567l-0.486,0.3    c-0.843-0.442-1.516-0.893-1.564-1.803c-0.056-1.056,0.768-1.681,1.721-2.405c0.659-0.5,1.369-1.049,1.752-1.793    c1.114,1.299,2.986,1.723,4.569,0.934c1.786-0.891,2.568-3.004,1.839-4.826C23.842,13.438,25.202,11.997,25.313,10.189z     M17.447,20.426c0.888-0.513,1.898-0.635,2.657-0.635c0.263,0,0.494,0.015,0.681,0.032c-0.301,0.663-0.992,1.898-2.19,2.59    c-1.194,0.69-2.244,0.956-2.896,0.947l2.228-1.373c0.188-0.116,0.246-0.362,0.131-0.551c-0.118-0.189-0.364-0.245-0.551-0.131    l-2.478,1.528C15.15,22.276,15.958,21.285,17.447,20.426z M7.241,20.249c-1.017-0.717-1.484-2.031-1.667-2.714    c0.61-0.001,1.915,0.098,2.925,0.811c1.043,0.737,1.669,1.53,1.887,2.062l-1.404-0.931c-0.185-0.124-0.432-0.071-0.555,0.112    c-0.122,0.184-0.072,0.432,0.112,0.554l1.487,0.986C9.429,21.224,8.322,21.013,7.241,20.249z M15.999,3.156    c0.917-1.384,2.787-1.764,4.172-0.847c1.312,0.87,1.715,2.597,0.948,3.968l-2.63,1.541c-0.57-0.006-1.156-0.167-1.643-0.491    c-0.362-0.24-0.66-0.57-0.898-0.97l-0.02-3.067l0.009-0.017C15.956,3.234,15.974,3.194,15.999,3.156z M15.573,12.767    c-0.245-0.311-0.53-0.575-0.853-0.789c-0.473-0.313-1.004-0.514-1.561-0.592c0.147-0.367,0.233-0.746,0.257-1.132    c0.035-0.566-0.057-1.126-0.268-1.647c0.392-0.057,0.763-0.172,1.109-0.345c0.508-0.252,0.947-0.612,1.293-1.055    c0.245,0.311,0.531,0.575,0.853,0.789c0.472,0.313,1.003,0.514,1.56,0.592c-0.146,0.367-0.232,0.746-0.256,1.132    c-0.035,0.566,0.057,1.126,0.268,1.647c-0.392,0.057-0.763,0.172-1.108,0.345C16.359,11.964,15.92,12.323,15.573,12.767z     M11.218,2.156c1.41-0.7,3.107-0.186,3.91,1.164l0.019,3.049c-0.297,0.508-0.723,0.916-1.247,1.177    c-0.389,0.194-0.831,0.271-1.29,0.292L9.946,6.322L9.935,6.304c-0.024-0.036-0.05-0.071-0.07-0.111    C9.125,4.707,9.732,2.897,11.218,2.156z M7.358,12.012c-0.532-0.602-0.798-1.376-0.749-2.179C6.705,8.262,8.037,7.081,9.573,7.03    l2.648,1.506c0.292,0.511,0.432,1.085,0.396,1.668c-0.027,0.434-0.164,0.857-0.39,1.262l-2.648,1.551l-0.019,0.001    c-0.043,0.003-0.085,0.009-0.133,0.004C8.626,12.974,7.89,12.615,7.358,12.012z M10.953,17.663    c-1.313-0.868-1.715-2.595-0.948-3.967l2.63-1.541c0.6,0.01,1.156,0.167,1.644,0.49c0.361,0.24,0.659,0.57,0.898,0.97l0.017,2.645    c-0.005,0.03-0.015,0.059-0.013,0.09c0.008,0.149-0.006,0.288-0.031,0.421c-0.008,0.015-0.015,0.031-0.024,0.046    c-0.444,0.67-1.123,1.128-1.911,1.287C12.428,18.263,11.624,18.108,10.953,17.663z M19.906,17.816    c-1.41,0.706-3.108,0.186-3.91-1.163l-0.019-3.049c0.297-0.509,0.724-0.917,1.247-1.177c0.388-0.194,0.828-0.278,1.288-0.292    l2.667,1.517l0.011,0.016c0.024,0.036,0.05,0.071,0.069,0.111C21.998,15.266,21.391,17.077,19.906,17.816z M21.551,12.943    l-2.65-1.508c-0.291-0.511-0.431-1.083-0.395-1.667c0.027-0.433,0.163-0.857,0.39-1.262l2.647-1.551l0.019-0.001    c0.044-0.003,0.092-0.009,0.132-0.004h0.001c0.803,0.049,1.537,0.408,2.07,1.011c0.532,0.602,0.798,1.376,0.748,2.179    C24.418,11.711,23.141,12.903,21.551,12.943z"/><ellipse cx="14.255" cy="9.185" rx="0.113" ry="0.112" transform="matrix(0.8952 -0.4457 0.4457 0.8952 -2.5996 7.316)"/><ellipse cx="13.717" cy="8.789" rx="0.112" ry="0.112" transform="matrix(0.8952 -0.4457 0.4457 0.8952 -2.4796 7.0348)"/><ellipse cx="13.78" cy="9.421" rx="0.113" ry="0.113" transform="matrix(0.8951 -0.4459 0.4459 0.8951 -2.7552 7.1333)"/><ellipse cx="14.991" cy="8.588" rx="0.113" ry="0.112" transform="matrix(0.8952 -0.4457 0.4457 0.8952 -2.2565 7.5816)"/><ellipse cx="15.701" cy="9.023" rx="0.113" ry="0.112" transform="matrix(0.8951 -0.4459 0.4459 0.8951 -2.3761 7.9482)"/><ellipse cx="15.063" cy="7.993" rx="0.112" ry="0.113" transform="matrix(0.8951 -0.4459 0.4459 0.8951 -1.9839 7.5554)"/><ellipse cx="15.502" cy="7.649" rx="0.112" ry="0.112" transform="matrix(0.8952 -0.4457 0.4457 0.8952 -1.7843 7.7107)"/><ellipse cx="15.511" cy="9.631" rx="0.112" ry="0.112" transform="matrix(0.8952 -0.4457 0.4457 0.8952 -2.667 7.9225)"/><ellipse cx="16.44" cy="9.771" rx="0.113" ry="0.112" transform="matrix(0.8951 -0.4459 0.4459 0.8951 -2.6319 8.3559)"/><ellipse cx="15.529" cy="10.59" rx="0.112" ry="0.112" transform="matrix(0.8952 -0.4457 0.4457 0.8952 -3.0922 8.031)"/><ellipse cx="15.483" cy="12.157" rx="0.112" ry="0.112" transform="matrix(0.8952 -0.4457 0.4457 0.8952 -3.7952 8.175)"/><ellipse cx="15.82" cy="10.079" rx="0.112" ry="0.112" transform="matrix(0.8952 -0.4457 0.4457 0.8952 -2.8342 8.1073)"/><ellipse cx="17.159" cy="9.904" rx="0.112" ry="0.113" transform="matrix(0.8951 -0.4459 0.4459 0.8951 -2.6158 8.6904)"/><ellipse cx="17.588" cy="8.852" rx="0.112" ry="0.112" transform="matrix(0.8952 -0.4457 0.4457 0.8952 -2.1018 8.7666)"/><ellipse cx="15.969" cy="11.057" rx="0.112" ry="0.113" transform="matrix(0.8951 -0.4459 0.4459 0.8951 -3.2548 8.2808)"/><ellipse cx="17.275" cy="11.195" rx="0.112" ry="0.113" transform="matrix(0.8952 -0.4457 0.4457 0.8952 -3.1788 8.8727)"/><ellipse cx="14.717" cy="9.464" rx="0.112" ry="0.112" transform="matrix(0.8952 -0.4457 0.4457 0.8952 -2.6755 7.5511)"/><ellipse cx="13.784" cy="10.054" rx="0.112" ry="0.112" transform="matrix(0.8952 -0.4457 0.4457 0.8952 -3.0363 7.1972)"/><ellipse cx="16.365" cy="8.643" rx="0.113" ry="0.112" transform="matrix(0.8952 -0.4457 0.4457 0.8952 -2.1369 8.1997)"/><ellipse cx="14.379" cy="8.533" rx="0.112" ry="0.112" transform="matrix(0.8952 -0.4457 0.4457 0.8952 -2.2959 7.3028)"/><ellipse cx="14.583" cy="10.348" rx="0.113" ry="0.113" transform="matrix(0.8951 -0.4459 0.4459 0.8951 -3.0844 7.5885)"/><ellipse cx="13.855" cy="11.217" rx="0.113" ry="0.112" transform="matrix(0.8952 -0.4457 0.4457 0.8952 -3.5472 7.3507)"/><ellipse cx="14.933" cy="11.231" rx="0.113" ry="0.112" transform="matrix(0.8952 -0.4457 0.4457 0.8952 -3.4404 7.8326)"/><ellipse cx="13.891" cy="10.563" rx="0.113" ry="0.113" transform="matrix(0.7994 -0.6008 0.6008 0.7994 -3.5595 10.4652)"/><ellipse cx="16.718" cy="9.155" rx="0.113" ry="0.113" transform="matrix(0.7994 -0.6008 0.6008 0.7994 -2.1465 11.8813)"/><ellipse cx="16.469" cy="10.422" rx="0.113" ry="0.113" transform="matrix(0.7994 -0.6008 0.6008 0.7994 -2.9581 11.9858)"/><ellipse cx="15.698" cy="8.215" rx="0.113" ry="0.112" transform="matrix(0.7992 -0.6011 0.6011 0.7992 -1.7853 11.0865)"/></g></g></svg>