<?xml version="1.0" encoding="UTF-8" standalone="no"?>
	<svg xmlns:rdf="http://www.w3.org/1999/02/22-rdf-syntax-ns#" xmlns="http://www.w3.org/2000/svg" height="248px" width="501px" xmlns:cc="http://creativecommons.org/ns#" xmlns:xlink="http://www.w3.org/1999/xlink" xmlns:dc="http://purl.org/dc/elements/1.1/">
	<title>Elements</title>
<desc xmlns:ian_image_library="http://ian.umces.edu/imagelibrary/">
      <ian_image_library:title>Elements</ian_image_library:title>
      <ian_image_library:descr>Illustration of mountains with snowcaps and foothills</ian_image_library:descr>
      <ian_image_library:scene>
		<ian_image_library:contains>symbol,vector,illustration,diagram,template,base,ecosystem,elements,terrestrial,landform,landscape,feature,mountains,foothills,snowcaps,snowcapped,alp,craig,elevation,peak,pike,palisade,range,ridge</ian_image_library:contains>
        <ian_image_library:when>2010-03-17</ian_image_library:when> 
	  </ian_image_library:scene>
   </desc>
    <metadata
		id="metadata-iil-c649b9dbd9f025f4ad94a8dd4cd6c04f">
      <rdf:RDF>
      <cc:Work
         rdf:about="">
        <dc:format>image/svg+xml</dc:format>
        <dc:type
           rdf:resource="http://purl.org/dc/dcmitype/StillImage" />
        <cc:license
           rdf:resource="http://creativecommons.org/licenses/by-sa/3.0/" />
        <dc:title>Elements</dc:title>
		<dc:date>2010-03-17</dc:date>
        <dc:creator>
			<cc:Agent>
				<dc:title>Tracey Saxby</dc:title>
			</cc:Agent>	
		</dc:creator>   
		<dc:rights>
          <cc:Agent>
            <dc:title>Tracey Saxby, Integration and Application Network</dc:title>
          </cc:Agent>
        </dc:rights>
        <dc:publisher>
          <cc:Agent>
            <dc:title>Integration and Application Network</dc:title>
          </cc:Agent>
        </dc:publisher>
		<dc:identifier>http://ian.umces.edu/imagelibrary/displayimage-6256.html</dc:identifier>
        <dc:source>http://ian.umces.edu/imagelibrary/displayimage-6256.html</dc:source>
        <dc:language>en-US</dc:language>
        <dc:subject>
          <rdf:Bag>
            <rdf:li>symbol,vector,illustration,diagram,template,base,ecosystem,elements,terrestrial,landform,landscape,feature,mountains,foothills,snowcaps,snowcapped,alp,craig,elevation,peak,pike,palisade,range,ridge</rdf:li>
          </rdf:Bag>
        </dc:subject>
        <dc:coverage></dc:coverage>
        <dc:description>Illustration of mountains with snowcaps and foothills</dc:description>
        <dc:contributor>
          <cc:Agent>
            <dc:title></dc:title>
          </cc:Agent>
        </dc:contributor>
      </cc:Work>
      <cc:License
         rdf:about="http://creativecommons.org/licenses/by-sa/3.0/">
        <cc:permits
           rdf:resource="http://creativecommons.org/ns#Reproduction" />
        <cc:permits
           rdf:resource="http://creativecommons.org/ns#Distribution" />
        <cc:requires
           rdf:resource="http://creativecommons.org/ns#Notice" />
        <cc:requires
           rdf:resource="http://creativecommons.org/ns#Attribution" />
        <cc:permits
           rdf:resource="http://creativecommons.org/ns#DerivativeWorks" />
        <cc:requires
           rdf:resource="http://creativecommons.org/ns#ShareAlike" />
      </cc:License>
    </rdf:RDF>
  </metadata>
	
<defs>
</defs>
<linearGradient id="ian_symbols_1fb680c623314be4f5fe70e90e16aab2" gradientUnits="userSpaceOnUse" x1="-1111.3193" y1="117.2393" x2="-1111.3193" y2="28.647" gradientTransform="matrix(-1 0 0 1 -823.8369 0)">
	<stop  offset="0.264" style="stop-color:#DAF0F4"/>
	<stop  offset="0.9944" style="stop-color:#FFFFFF"/>
</linearGradient>
<path fill="url(#ian_symbols_1fb680c623314be4f5fe70e90e16aab2)" stroke="#414042" stroke-width="0.5" stroke-linecap="round" stroke-linejoin="round" d="
	M295.529,104.725c-3.252,1.113-7.776-1.086-10.536,3.022c-2.743,4.108-13.916,0-13.916,0s-9.611-4.108-13.647,0
	c-4.031,4.108-39.938-10.722-39.938-10.722s13.841-7.651,16.644-16.146c2.786-8.525,8.88-15.975,13.222-20.452
	c4.342-4.439,12.165-7.583,15.268-13.665c3.104-6.088,4.666-19.262,10.314-18.036c5.64,1.191,9.069,8.328,14.658,12.779
	c5.595,4.443,11.108,9.475,15.273,10.529c4.171,1.037,16.774,18.509,25.453,22.566c8.697,4.037,29.151,27.918,29.151,27.918
	s-14.938,15.987-21.132,14.639C330.138,115.798,298.801,103.628,295.529,104.725z"/>
<linearGradient id="ian_symbols_8b377c04903e5f847188e797bb61026f" gradientUnits="userSpaceOnUse" x1="-1304.0103" y1="146.7856" x2="-824.0869" y2="146.7856" gradientTransform="matrix(-1 0 0 1 -823.8369 0)">
	<stop  offset="0" style="stop-color:#345647"/>
	<stop  offset="1" style="stop-color:#003D3B"/>
</linearGradient>
<path fill="url(#ian_symbols_8b377c04903e5f847188e797bb61026f)" stroke="#414042" stroke-width="0.5" stroke-linecap="round" stroke-linejoin="round" d="M0.422,224.626
	c-2.573-6.173,24.538-28.56,25.051-35.064c0.483-6.106,5.889-2.651,8.575-9.438c2.061-5.184,11.049-11.17,15.817-14.836
	c5.158-3.964,4.493-21.846,10.899-25.684c3.344-2.007,7.732-4.733,11.003-7.493c7.962-6.687,18.542-18.373,33.494-20.084
	c8.23-0.921,7.42,2.043,13.471,0.062c4.65-1.531,9.349-4.455,14.111-6.321c5.893-2.298,4.237-3.602,10.317-3.998
	c2.395-0.172,5.071,2,8.008,2.081c11.341,0.313,22.669-6.63,30.27-11.892c11.462-7.923,24.442-25.542,29.983-26.513
	c5.562-0.938,32.592,21.822,45.456,18.419c3.54-0.949,6.37-5.234,9.392-5.844c1.492-0.298,3.893-1.792,6.059-0.617
	c2.165,1.17,2.733,1.948,4.546,1.717c1.754-0.207,3.219-2.277,5.015-2.808c6.458-1.942,17.063-7.456,23.332-6.493
	c7.233,1.089,17.984,12.454,24.49,15.802c6.834,3.485,14.394,6.964,23.14,8.035c7.396,0.925,23.198-15.148,28.729-12.454
	c6.882,3.376,17.205,14.087,19.78,15c2.593,0.908,8.286,8.363,14.214,13.547c8.404,7.327,16.729,28.58,21.955,28.846
	c5.233,0.226,14.874,32.904,23.271,33.702l19.374,33.78c-16.117-1.318-50.633-4.154-52.215-4.422
	c-16.124-2.623-33.397-2.783-50.403-1.422c-46.642,3.744-88.746,16.015-132.259,26.709c-21.712,5.348-29.385-8.78-50.234-8.445
	c-12.835,0.209-42.512,7.089-48.254,6.567c-5.899-0.53-11.827-1.129-17.826-1.429c-31.387-1.569-78.123,1.982-108.78,3.955
	C20.342,227.073-0.259,224.874,0.422,224.626z"/>
<linearGradient id="ian_symbols_c879f678f7d0a2944d95a4f099e8f86a" gradientUnits="userSpaceOnUse" x1="-1083.7734" y1="151.7798" x2="-1038.5723" y2="151.7798" gradientTransform="matrix(-1 0 0 1 -823.8369 0)">
	<stop  offset="0.0056" style="stop-color:#466C5A"/>
	<stop  offset="1" style="stop-color:#0B4947"/>
</linearGradient>
<path fill="url(#ian_symbols_c879f678f7d0a2944d95a4f099e8f86a)" stroke="#414042" stroke-width="0.5" stroke-linecap="round" stroke-linejoin="round" d="
	M217.675,167.35c8.156,4.394,7.622,3.879,12.512,5.145c16.005,4.149,26.204,3.806,28.393,3.168
	c6.69-2.021-13.538-28.807-13.538-28.807s-15.742-19.345-20.168-19.345C220.438,127.482,209.526,162.95,217.675,167.35z"/>
<linearGradient id="ian_symbols_09591bd52554dbe431575cde83072734" gradientUnits="userSpaceOnUse" x1="1493.8511" y1="-11.0332" x2="1372.3607" y2="-25.6151" gradientTransform="matrix(0.996 -0.0891 0.1866 2.0862 -1286.8199 231.8013)">
	<stop  offset="0.0056" style="stop-color:#8ED8F8"/>
	<stop  offset="1" style="stop-color:#DAF0F4"/>
</linearGradient>
<path fill="url(#ian_symbols_09591bd52554dbe431575cde83072734)" stroke="#414042" stroke-width="0.5" stroke-linecap="round" stroke-linejoin="round" d="M178.72,1.542
	c-3.186,1.746-12.985,11.902-15.53,18.104c-2.551,6.179-9.129,10.301-12.581,17.781c-1.411,3.024-14.074,16.338-22.125,19.456
	c-11.83,4.608-51.106,68.717-50.921,70.828c0.106,1.311,41.208-26.505,51.026-22.271c6.139,2.634,19.419-26.233,27.69-23.71
	c14.042,4.322,28.036,14.431,28.036,14.431l14.096-38.876c0,0-8.587-47.975-11.706-48.289C183.579,8.686,181.901-0.188,178.72,1.542
	z"/>
<linearGradient id="ian_symbols_2cfa0bd814d965d4455abb0dc69c9418" gradientUnits="userSpaceOnUse" x1="1491.8804" y1="-3.9849" x2="1399.6467" y2="-14.3865" gradientTransform="matrix(1.0002 -0.1366 0.1373 2.6378 -1293.0549 301.7065)">
	<stop  offset="0.0056" style="stop-color:#8ED8F8"/>
	<stop  offset="1" style="stop-color:#DAF0F4"/>
</linearGradient>
<path fill="url(#ian_symbols_2cfa0bd814d965d4455abb0dc69c9418)" stroke="#414042" stroke-width="0.5" stroke-linecap="round" stroke-linejoin="round" d="M180.935,41.29
	c-3.234,2.269-9.523,10.225-12.213,18.11c-2.704,7.908-20.111,9.802-23.761,19.338c-3.647,9.539-39.934,28.819-39.699,33.29
	c0.025,0.464,10.542,5.967,16.64,11.07c2.741,2.317,76.779-24.402,76.779-24.402s-7.458-60.528-10.575-60.854
	C184.968,37.532,184.169,38.979,180.935,41.29z"/>
<linearGradient id="ian_symbols_5b27a7f1040be1b4dd3203524ebf7484" gradientUnits="userSpaceOnUse" x1="1522.1265" y1="21.5098" x2="1533.3623" y2="-38.4629" gradientTransform="matrix(0.996 -0.0891 0.1866 2.0862 -1286.8199 231.8013)">
	<stop  offset="0.264" style="stop-color:#DAF0F4"/>
	<stop  offset="0.9944" style="stop-color:#FFFFFF"/>
</linearGradient>
<path fill="url(#ian_symbols_5b27a7f1040be1b4dd3203524ebf7484)" stroke="#414042" stroke-width="0.5" stroke-linecap="round" stroke-linejoin="round" d="
	M204.91,132.708c0.773,0.552,5.616,0.903,8.116-0.7c2.03-1.307,5.379-3.325,6.05-3.606c1.392-0.62,6.222-0.647,10.44-1.693
	c2.787-0.713,6.396-3.494,9.979-4.631c3.772-1.194,7.608-0.679,12.521-0.072c2.271,0.276,4.947,3.456,6.52,4.153
	c6.151,2.695,7.308,4.83,14.479,2.671c9.936-2.995,14.795-29.165,14.795-29.165s-22.94-28.376-30.632-35.106
	c-4.205-4.086-2.563,5.698-7.59,1.429c-5.918-5.053-10.963-18.347-15.331-23.895c-4.718-2.781-8.832-16.19-13.989-23.273
	c-4.181-5.763-7.146-4.567-12.483-6.672c-5.434-3.227-12.31-1.936-14.235-4.299c-2.966-3.666-6.871-6.434-8.651-7.042
	c-3.101-1.056-5.498-0.488-6.179,0.738c-0.676,1.244,4.232,1.606,2.148,8.587c-2.092,7.005,7.187,18.094,4.395,28.14
	c-2.389,8.55,7.826,32.405,6.053,40.603c-2.566,11.801,11.996,39.185,11.422,39.209C202.738,118.081,201.572,130.293,204.91,132.708
	z"/>
<linearGradient id="ian_symbols_574316cd166e51a46de0db33db62347e" gradientUnits="userSpaceOnUse" x1="-1064.7212" y1="118.5562" x2="-939.6299" y2="118.5562" gradientTransform="matrix(-1 0 0 1 -823.8369 0)">
	<stop  offset="0.0056" style="stop-color:#466C5A"/>
	<stop  offset="1" style="stop-color:#0B4947"/>
</linearGradient>
<path fill="url(#ian_symbols_574316cd166e51a46de0db33db62347e)" stroke="#414042" stroke-width="0.5" stroke-linecap="round" stroke-linejoin="round" d="
	M208.885,67.884c-4.366,1.732-9.772,4.991-12.889,10.381c-3.122,5.396-14.289,6.538-18.614,13.081
	c-1.746,2.641-23.27,14.323-34.384,17.6c-16.333,4.854-27.612,22.322-27.194,24.062c0.268,1.116,23.313,27.666,37.495,30.386
	c8.842,1.676,15.81-6.126,27.636-4.693c20.14,2.442,41.016,10.791,41.016,10.791l18.934-56.647c0,0-15.742-39.391-20.183-39.391
	C216.281,73.453,213.229,66.163,208.885,67.884z"/>
<linearGradient id="ian_symbols_6335a29be921437451cdef9cca15ba57" gradientUnits="userSpaceOnUse" x1="-1203.8345" y1="114.436" x2="-1032.6426" y2="114.436" gradientTransform="matrix(-1 0 0 1 -823.8369 0)">
	<stop  offset="0.0056" style="stop-color:#466C5A"/>
	<stop  offset="1" style="stop-color:#0B4947"/>
</linearGradient>
<path fill="url(#ian_symbols_6335a29be921437451cdef9cca15ba57)" stroke="#414042" stroke-width="0.5" stroke-linecap="round" stroke-linejoin="round" d="
	M379.846,152.343c-5.243-6.865-13.887-23.133-25.445-35.735c-3.873-4.234-16.263-18.706-20.963-23.492
	c-13.412-13.646-16.69-21.637-29.868-23.687c-9.188-0.571-15.378,33.831-20.36,32.431c-6.857-1.933-14.578-3.47-22.369-8.961
	c-6.358-4.479-13.887-6.316-19.156-10.154c-7.855-5.712-20.104-14.579-24.15-15.991c-6.252-2.21-7.922-1.081-8.648,1.131
	c-0.894,1.087,6.091,0.995,3.679,7.003c-2.418,6.026,11.494,14.519,8.336,23.173c-2.695,7.346,13.495,26.443,11.602,33.438
	c-2.741,10.087,19.896,31.769,19.097,31.817C251.598,163.315,385.108,159.212,379.846,152.343z"/>
<linearGradient id="ian_symbols_bd95e887256209e489e5e3c71f9f2cba" gradientUnits="userSpaceOnUse" x1="583.1099" y1="198.1392" x2="583.1099" y2="127.7466" gradientTransform="matrix(-0.9967 -0.081 -0.0836 1.0282 659.446 78.6884)">
	<stop  offset="0" style="stop-color:#4A694A"/>
	<stop  offset="1" style="stop-color:#789747"/>
</linearGradient>
<path fill="url(#ian_symbols_bd95e887256209e489e5e3c71f9f2cba)" stroke="#414042" stroke-width="0.5" stroke-linecap="round" stroke-linejoin="round" d="M23.584,230.91
	c3.686,5.501,20.728-6.943,25.243-5.116c-4.841,9.88,11.262,1.947,17.146,1.448c6.714-0.572,14.092,2.295,18.889,1.482
	c5.531-0.93,4.419-2.324,11.876-3.103c3.099-0.321,8.45,2.516,13.967,3.715c6.332,1.387,12.897-5.117,12.897-5.117
	s-1.209-11.09-7.44-20.79c-2.786-4.322-4.108-5.001-5.792-7.675c-2.423-3.838-3.218-5.389-7.003-6.349
	c-1.517-0.386-3.111-4.09-4.405-4.24c-1.259-0.149-4.611-14.712-7.257-17.059c-1.592-1.402-1.829-3.69-4.263-3.674
	c-6.492,0.019-5.875,5.696-14.9,4.125c-9.024-1.579-15.535,23.151-26.731,24.533c-11.196,1.376-13.92,22.696-44.397,33.058
	C21.281,227.592,19.909,225.404,23.584,230.91z"/>
<path fill="none" stroke="#414042" stroke-width="0.5" stroke-linecap="round" stroke-linejoin="round" d="M43.423,206.792
	c9.334-1.652,9.209-4.146,16.715-5.232c1.069-0.155,3.954-0.071,4.933-0.021c7.853,0.414,9.453,7.298,12.392,7.842"/>
<path fill="none" stroke="#414042" stroke-width="0.5" stroke-linecap="round" stroke-linejoin="round" d="M55.992,216.863
	c9.334-1.645,9.739-6.426,17.23-7.52c1.077-0.15,3.958-0.062,4.944-0.011c7.85,0.409,9.449,7.286,12.39,7.844"/>
<path fill="none" stroke="#414042" stroke-width="0.5" stroke-linecap="round" stroke-linejoin="round" d="M99.73,185.228
	c0,0-5.429,0.096-8.831,3.757c-3.409,3.666-1.865,2.033-6.914,6.874c-5.058,4.846-9.331,5.368-9.331,5.368"/>
<linearGradient id="ian_symbols_9203f0fcbe88b174e527b7497382fe0d" gradientUnits="userSpaceOnUse" x1="329.3472" y1="82.1128" x2="328.3212" y2="140.8885" gradientTransform="matrix(1 0 0 1 9.8418 0)">
	<stop  offset="0.0056" style="stop-color:#8ED8F8"/>
	<stop  offset="1" style="stop-color:#DAF0F4"/>
</linearGradient>
<path fill="url(#ian_symbols_9203f0fcbe88b174e527b7497382fe0d)" stroke="#414042" stroke-width="0.5" stroke-linecap="round" stroke-linejoin="round" d="
	M333.836,132.198c1.827,0.725,4.393-0.716,5.933,1.977c1.551,2.694,7.857,0,7.857,0s5.412-2.692,7.687,0
	c2.269,2.694,22.506-7.043,22.506-7.043s-7.796-5.017-9.375-10.599c-1.57-5.592-5.005-10.483-7.459-13.417
	c-2.451-2.912-6.857-4.982-8.606-8.973c-1.742-3.99-2.628-12.64-5.798-11.843c-3.187,0.79-5.122,5.471-8.276,8.402
	c-3.143,2.909-6.259,6.215-8.604,6.899c-2.346,0.684-9.442,12.148-14.348,14.822c-4.896,2.646-16.429,18.32-16.429,18.32
	s8.421,10.494,11.916,9.605C314.334,139.455,331.988,131.463,333.836,132.198z"/>
<linearGradient id="ian_symbols_b5fdbb3c62d0cd6489e2144ef8f9d753" gradientUnits="userSpaceOnUse" x1="219.9341" y1="160.7192" x2="490.4087" y2="160.7192" gradientTransform="matrix(1 0 0 1 9.8418 0)">
	<stop  offset="0" style="stop-color:#345647"/>
	<stop  offset="1" style="stop-color:#003D3B"/>
</linearGradient>
<path fill="url(#ian_symbols_b5fdbb3c62d0cd6489e2144ef8f9d753)" stroke="#414042" stroke-width="0.5" stroke-linecap="round" stroke-linejoin="round" d="
	M500.153,210.894c1.453-4.051-13.838-18.741-14.117-23.011c-0.269-4.007-3.322-1.744-4.833-6.197
	c-1.163-3.407-6.229-7.336-8.908-9.736c-2.913-2.601-2.545-14.342-6.147-16.862c-1.882-1.314-4.363-3.105-6.2-4.927
	c-4.489-4.387-8.638-10.242-17.059-11.357c-4.643-0.606-6.008-0.476-9.419-1.777c-2.615-1.004-5.262-2.922-7.952-4.152
	c-3.312-1.507-2.376-2.36-5.809-2.623c-1.346-0.115-2.854,1.312-4.505,1.363c-6.399,0.213-12.782-4.354-17.063-7.802
	c-6.463-5.202-13.778-16.77-16.905-17.405c-3.128-0.611-18.365,14.321-25.617,12.088c-1.99-0.62-3.583-3.429-5.294-3.836
	c-0.84-0.193-2.194-1.172-3.406-0.402c-1.223,0.767-2.268-0.411-3.287-0.563c-0.992-0.131-1.093,0.199-2.103-0.16
	c-3.646-1.271-9.626-4.884-13.147-4.248c-4.086,0.708-10.146,8.174-13.816,10.367c-3.84,2.293-8.096,4.573-13.022,5.271
	c-4.173,0.613-13.589-1.336-16.7,0.438c-3.892,2.213-9.195,0.636-10.644,1.232c-1.465,0.601-4.667,5.492-8.02,8.897
	c-4.73,4.807-9.418,18.763-12.368,18.934c-2.944,0.148-13.095,18.293-17.84,18.824l-6.195,25.475
	c9.081-0.863,28.543-2.728,29.432-2.904c9.085-1.725,18.81-1.827,28.399-0.933c26.293,2.453,50.021,10.509,74.55,17.53
	c22.557,6.477,43.249-0.869,65.539-2.172c17.693-1.024,44.035,1.303,61.311,2.604C488.926,212.507,500.54,211.059,500.153,210.894z"
	/>
<linearGradient id="ian_symbols_5e629f7118da4f84a102d432d27c0f39" gradientUnits="userSpaceOnUse" x1="344.0571" y1="153.2192" x2="378.4204" y2="153.2192" gradientTransform="matrix(1 0 0 1 9.8418 0)">
	<stop  offset="0.0056" style="stop-color:#466C5A"/>
	<stop  offset="1" style="stop-color:#0B4947"/>
</linearGradient>
<path fill="url(#ian_symbols_5e629f7118da4f84a102d432d27c0f39)" stroke="#414042" stroke-width="0.5" stroke-linecap="round" stroke-linejoin="round" d="
	M387.999,137.598c1.759,3.535-5.693,32.807-10.281,35.703c-4.608,2.887-4.302,2.541-7.054,3.377c-9.027,2.723-14.771,2.497-16,2.076
	c-3.771-1.322,7.625-25.486,7.625-25.486s8.868-25.839,11.368-25.839C376.156,127.413,386.249,134.066,387.999,137.598z"/>
<linearGradient id="ian_symbols_5b82feddac9627642572ffcfdce4a50e" gradientUnits="userSpaceOnUse" x1="94.9302" y1="-53.3252" x2="26.2629" y2="-61.567" gradientTransform="matrix(-0.996 -0.0891 -0.1866 2.0862 472.825 231.8013)">
	<stop  offset="0" style="stop-color:#DAF0F4"/>
	<stop  offset="0.9944" style="stop-color:#FFFFFF"/>
</linearGradient>
<path fill="url(#ian_symbols_5b82feddac9627642572ffcfdce4a50e)" stroke="#414042" stroke-width="0.5" stroke-linecap="round" stroke-linejoin="round" d="
	M399.67,64.465c1.8,1.143,7.324,7.81,8.754,11.878c1.432,4.055,5.136,6.761,7.095,11.674c0.79,1.978,7.926,10.726,12.455,12.771
	c6.678,3.02,28.808,45.103,28.703,46.491c-0.066,0.864-23.216-17.401-28.751-14.621c-3.468,1.723-10.952-17.223-15.606-15.559
	c-7.913,2.837-15.804,9.466-15.804,9.466l-7.938-25.512c0,0,4.833-31.502,6.584-31.697C396.941,69.152,397.878,63.317,399.67,64.465
	z"/>
<linearGradient id="ian_symbols_2e006e775d3a81a43534d349e1c8a438" gradientUnits="userSpaceOnUse" x1="102.6445" y1="-60.2236" x2="44.1802" y2="-66.8169" gradientTransform="matrix(-1.0002 -0.1366 -0.1373 2.6378 479.0599 301.7065)">
	<stop  offset="0" style="stop-color:#DAF0F4"/>
	<stop  offset="0.9944" style="stop-color:#FFFFFF"/>
</linearGradient>
<path fill="url(#ian_symbols_2e006e775d3a81a43534d349e1c8a438)" stroke="#414042" stroke-width="0.5" stroke-linecap="round" stroke-linejoin="round" d="
	M398.421,90.549c1.817,1.488,5.365,6.707,6.886,11.891c1.528,5.194,11.333,6.434,13.394,12.702
	c2.049,6.248,25.292,20.765,25.163,23.696c-0.019,0.309-8.734,2.062-12.173,5.417c-1.55,1.515-33.635,17.097-35.508,18.566
	c-6.151,4.87-10.212,5.01-11.123,4.462c-2.755-1.662,3.357-39.058,3.357-39.058s4.21-39.72,5.956-39.936
	C396.146,88.087,396.597,89.031,398.421,90.549z"/>
<linearGradient id="ian_symbols_e9fdfb0123d280d4dd6f6b24d9ff838c" gradientUnits="userSpaceOnUse" x1="117.4341" y1="-72.6489" x2="111.3685" y2="-32.3603" gradientTransform="matrix(-0.996 -0.0891 -0.1866 2.0862 472.825 231.8013)">
	<stop  offset="0.0056" style="stop-color:#8ED8F8"/>
	<stop  offset="1" style="stop-color:#DAF0F4"/>
</linearGradient>
<path fill="url(#ian_symbols_e9fdfb0123d280d4dd6f6b24d9ff838c)" stroke="#414042" stroke-width="0.5" stroke-linecap="round" stroke-linejoin="round" d="
	M384.907,150.56c-0.432,0.365-3.165,0.593-4.578-0.461c-1.137-0.863-3.015-2.18-3.398-2.365c-0.796-0.413-3.515-0.427-5.886-1.119
	c-1.574-0.462-3.607-2.29-5.621-3.032c-2.135-0.789-4.3-0.449-7.06-0.046c-1.281,0.182-2.788,2.263-3.679,2.722
	c-3.468,1.768-4.113,3.17-8.152,1.749c-5.6-1.958-8.349-19.138-8.349-19.138s9.888-15.713,14.222-20.138
	c2.373-2.677,4.489,0.828,7.321-1.969c3.344-3.314,6.185-12.042,8.643-15.689c2.658-1.828,4.986-10.622,7.872-15.277
	c2.365-3.781,4.039-2.993,7.048-4.371c3.052-2.124,6.938-1.274,8.019-2.824c1.679-2.409,3.873-4.227,4.875-4.627
	c1.747-0.691,3.109-0.32,3.487,0.491c0.381,0.81-2.387,1.048-1.212,5.635c1.179,4.591-4.05,11.872-2.476,18.465
	c1.338,5.618-4.412,21.275-3.404,26.651c1.438,7.748-6.771,25.721-6.441,25.74C386.137,140.957,386.784,148.983,384.907,150.56z"/>
<linearGradient id="ian_symbols_46cc9748117c8b04754a3daac7de9419" gradientUnits="userSpaceOnUse" x1="354.7983" y1="140.6509" x2="425.2935" y2="140.6509" gradientTransform="matrix(1 0 0 1 9.8418 0)">
	<stop  offset="0.0056" style="stop-color:#466C5A"/>
	<stop  offset="1" style="stop-color:#0B4947"/>
</linearGradient>
<path fill="url(#ian_symbols_46cc9748117c8b04754a3daac7de9419)" stroke="#414042" stroke-width="0.5" stroke-linecap="round" stroke-linejoin="round" d="
	M382.667,108.007c2.462,1.141,5.506,3.283,7.263,6.819c1.759,3.54,8.056,4.287,10.496,8.583c0.977,1.729,13.114,9.402,19.372,11.545
	c9.216,3.188,15.566,14.656,15.331,15.805c-0.152,0.727-13.141,18.161-21.128,19.941c-4.985,1.099-10.255-5.409-16.922-4.476
	c-11.347,1.612-18.033,7.241-18.033,7.241l-14.406-35.945c0,0,8.872-25.858,11.365-25.858
	C378.5,111.663,380.221,106.878,382.667,108.007z"/>
<linearGradient id="ian_symbols_9196e676f092f634151e37aff234125b" gradientUnits="userSpaceOnUse" x1="264.604" y1="148.9341" x2="372.8706" y2="148.9341" gradientTransform="matrix(1 0 0 1 9.8418 0)">
	<stop  offset="0.0056" style="stop-color:#466C5A"/>
	<stop  offset="1" style="stop-color:#0B4947"/>
</linearGradient>
<path fill="url(#ian_symbols_9196e676f092f634151e37aff234125b)" stroke="#414042" stroke-width="0.5" stroke-linecap="round" stroke-linejoin="round" d="
	M356.246,178.578c-0.638,0.268-38.106,13.58-40.9,12.773c-2.961-0.856-42.547-12.655-40.847-17.169
	c2.529-6.708,8.86-6.225,11.822-10.735c2.958-4.506,7.835-15.186,14.334-23.461c2.202-2.778,9.169-12.266,11.818-15.415
	c7.563-8.96,9.407-14.203,16.837-15.553c5.176-0.369,8.662,22.211,11.473,21.295c3.867-1.275,8.214-2.286,12.607-5.885
	c3.58-2.939,7.827-4.143,10.795-6.667c4.416-3.754,11.336-9.571,13.607-10.499c3.529-1.443,4.462-0.705,4.875,0.745
	c0.507,0.716-3.427,0.652-2.075,4.604c1.366,3.946-6.474,9.524-4.696,15.198c1.522,4.83-7.609,17.362-6.538,21.956
	c1.547,6.619-11.213,20.852-10.763,20.887C358.595,170.653,359.008,177.432,356.246,178.578z"/>
<linearGradient id="ian_symbols_52d590ddd14c06946dbd27f1ada46b80" gradientUnits="userSpaceOnUse" x1="1921.6772" y1="286.4312" x2="1921.6772" y2="240.6743" gradientTransform="matrix(0.9967 -0.081 0.0836 1.0282 -1473.4412 78.6884)">
	<stop  offset="0" style="stop-color:#4A694A"/>
	<stop  offset="1" style="stop-color:#789747"/>
</linearGradient>
<path fill="url(#ian_symbols_52d590ddd14c06946dbd27f1ada46b80)" stroke="#414042" stroke-width="0.5" stroke-linecap="round" stroke-linejoin="round" d="
	M487.103,215.018c-2.081,3.615-11.688-4.549-14.225-3.355c2.72,6.493-7.214,1.521-10.534,1.199c-3.783-0.37-7.08,1.256-9.783,0.728
	c-3.111-0.614-2.772-0.757-6.978-1.267c-1.746-0.214-4.469,0.882-7.579,1.671c-3.572,0.906-7.271-3.363-7.271-3.363
	s0.673-7.282,4.197-13.647c1.561-2.834,2.312-3.286,3.255-5.037c1.368-2.515,1.821-3.545,3.951-4.161
	c0.845-0.261,1.751-2.699,2.482-2.787c0.711-0.104,2.594-9.657,4.093-11.197c0.901-0.922,1.027-2.429,2.395-2.413
	c3.658,0.008,3.313,3.738,8.4,2.701c5.09-1.03,8.764,15.198,15.065,16.106c6.309,0.9,8.116,14.2,25.296,21.005
	C489.887,213.519,489.168,211.409,487.103,215.018z"/>
<path fill="none" stroke="#414042" stroke-width="0.5" stroke-linecap="round" stroke-linejoin="round" d="M475.919,199.187
	c-5.259-1.078-5.188-2.719-9.418-3.433c-0.602-0.096-2.236-0.045-2.792-0.01c-4.417,0.264-5.317,4.789-6.981,5.147"/>
<path fill="none" stroke="#414042" stroke-width="0.5" stroke-linecap="round" stroke-linejoin="round" d="M468.834,205.801
	c-5.257-1.085-5.487-4.219-9.708-4.936c-0.614-0.094-2.243-0.042-2.792-0.011c-4.423,0.268-5.332,4.782-6.98,5.146"/>
<path fill="none" stroke="#414042" stroke-width="0.5" stroke-linecap="round" stroke-linejoin="round" d="M444.189,185.043
	c0,0,3.057,0.051,4.967,2.456c1.919,2.411,1.051,1.339,3.904,4.52c2.848,3.172,5.262,3.521,5.262,3.521"/>
<linearGradient id="ian_symbols_31b37961dcc492c4b9ef1a312611560c" gradientUnits="userSpaceOnUse" x1="1821.7378" y1="287.6685" x2="1821.7378" y2="211.5044" gradientTransform="matrix(0.9967 -0.081 0.0836 1.0282 -1473.4412 78.6884)">
	<stop  offset="0" style="stop-color:#4A694A"/>
	<stop  offset="1" style="stop-color:#789747"/>
</linearGradient>
<path fill="url(#ian_symbols_31b37961dcc492c4b9ef1a312611560c)" stroke="#414042" stroke-width="0.5" stroke-linecap="round" stroke-linejoin="round" d="
	M401.424,222.444c-3.46,6.026-19.76-4.232-24.003-2.236c5.139,7.021-17.598-0.375-23.133-0.915c-6.308-0.63-5.69,2.021-10.202,1.137
	c-5.189-1.021-5.916-5.771-12.921-6.623c-2.913-0.352-6.162,5.972-11.348,7.299c-5.95,1.505-12.124-5.604-12.124-5.604
	s1.138-12.141,6.989-22.746c2.617-4.729,3.856-5.472,5.444-8.393c2.282-4.197,3.022-5.902,6.575-6.954
	c1.427-0.415,2.924-4.47,4.144-4.64c1.184-0.161,4.32-16.093,6.819-18.654c1.487-1.534,1.706-4.033,3.997-4.02
	c6.099,0.029,5.521,6.24,13.999,4.508c8.48-1.723,14.592,25.324,25.104,26.837c10.513,1.51,13.935,25.182,42.555,36.531
	C404.661,219.55,404.878,216.417,401.424,222.444z"/>
<path fill="none" stroke="#414042" stroke-width="0.5" stroke-linecap="round" stroke-linejoin="round" d="M383.011,196.433
	c-8.759-1.806-8.663-4.536-15.705-5.723c-1-0.175-3.706-0.084-4.637-0.02c-7.37,0.447-8.875,7.976-11.637,8.574"/>
<path fill="none" stroke="#414042" stroke-width="0.5" stroke-linecap="round" stroke-linejoin="round" d="M371.21,207.444
	c-8.78-1.791-9.147-7.026-16.192-8.206c-1.015-0.175-3.717-0.086-4.632-0.026c-7.389,0.45-8.879,7.973-11.645,8.579"/>
<path fill="none" stroke="#414042" stroke-width="0.5" stroke-linecap="round" stroke-linejoin="round" d="M330.115,172.846
	c0,0,5.101,0.094,8.303,4.105c3.196,4.007,1.746,2.224,6.49,7.525c4.746,5.299,8.764,5.873,8.764,5.873"/>
<linearGradient id="ian_symbols_917f8e22dc98ae84a1159718354af6a8" gradientUnits="userSpaceOnUse" x1="1786.7163" y1="298.3335" x2="1786.7163" y2="222.0688" gradientTransform="matrix(0.9967 -0.081 0.0836 1.0282 -1473.4412 78.6884)">
	<stop  offset="0" style="stop-color:#4A694A"/>
	<stop  offset="1" style="stop-color:#789747"/>
</linearGradient>
<path fill="url(#ian_symbols_917f8e22dc98ae84a1159718354af6a8)" stroke="#414042" stroke-width="0.5" stroke-linecap="round" stroke-linejoin="round" d="
	M350.71,237.891c-3.459,6.028-19.465-7.593-23.707-5.598c4.562,10.824-42.748-60.537-40.26-63.108
	c1.485-1.54,1.709-4.031,3.985-4.018c6.114,0.024,5.526,6.241,14.01,4.512c8.467-1.728,14.59,25.318,25.104,26.836
	c10.519,1.514,13.069,24.829,41.711,36.174C352.883,234.265,354.178,231.865,350.71,237.891z"/>
<linearGradient id="ian_symbols_5f455af6d19ec7140dcd53a3654563c8" gradientUnits="userSpaceOnUse" x1="401.6069" y1="198.5415" x2="401.6069" y2="93.3105" gradientTransform="matrix(-0.9967 -0.081 -0.0836 1.0282 659.446 78.6884)">
	<stop  offset="0" style="stop-color:#4A694A"/>
	<stop  offset="1" style="stop-color:#789747"/>
</linearGradient>
<path fill="url(#ian_symbols_5f455af6d19ec7140dcd53a3654563c8)" stroke="#414042" stroke-width="0.5" stroke-linecap="round" stroke-linejoin="round" d="
	M185.612,243.909c5.497,8.233,30.975-10.384,37.722-7.65c-7.241,14.784,15.667-1.803,24.467-2.546
	c10.049-0.847,22.24,8.14,29.4,6.934c8.266-1.395,9.424-7.883,20.57-9.05c4.634-0.48,9.82,8.158,18.07,9.964
	c9.461,2.062,19.271-7.654,19.271-7.654s-1.802-16.585-11.113-31.082c-4.162-6.461-6.139-7.473-8.654-11.473
	c-3.628-5.729-4.819-8.058-10.478-9.486c-2.267-0.576-4.64-6.111-6.584-6.343c-1.877-0.228-6.884-21.985-10.851-25.498
	c-2.379-2.097-2.728-5.509-6.364-5.49c-9.71,0.035-8.791,8.525-22.275,6.163c-13.495-2.363-23.228,34.601-39.97,36.665
	c-16.721,2.068-20.805,33.935-66.375,49.432C182.158,238.95,180.109,235.673,185.612,243.909z"/>
<path fill="none" stroke="#414042" stroke-width="0.5" stroke-linecap="round" stroke-linejoin="round" d="M213.665,208.651
	c13.955-2.473,13.768-6.198,24.989-7.819c1.601-0.239,5.91-0.105,7.383-0.025c11.728,0.609,14.122,10.894,18.515,11.72"/>
<path fill="none" stroke="#414042" stroke-width="0.5" stroke-linecap="round" stroke-linejoin="round" d="M232.458,223.709
	c13.945-2.465,14.546-9.609,25.751-11.229c1.608-0.232,5.915-0.107,7.386-0.031c11.738,0.616,14.127,10.897,18.52,11.728"/>
<path fill="none" stroke="#414042" stroke-width="0.5" stroke-linecap="round" stroke-linejoin="round" d="M296.894,176.74
	c0,0-7.171-0.188-12.264,5.292c-5.093,5.476-2.778,3.046-10.33,10.284c-7.563,7.232-13.948,8.026-13.948,8.026"/>
</svg>
