<?xml version="1.0"?><svg width="793.7007874015749" height="1122.5196850393702" xmlns="http://www.w3.org/2000/svg" xmlns:xlink="http://www.w3.org/1999/xlink">
 <title>11 trees</title>

 <g>
  <title>Layer 1</title>
  <g transform="matrix(1.42929 0 0 1.42929 -159.947 -161.466)" id="g2488">
   <path fill="#000000" fill-opacity="0.75" fill-rule="nonzero" stroke-width="1.0000000pt" id="path1745" d="m364.374573,270.96875l-4.53125,0.15625c0.651001,8.033752 1.764557,15.975739 3,23.9375c0.548401,3.496368 1.163849,7.095428 1.6875,10.6875c-4.14151,-7.430145 -9.467896,-14.249817 -16.53125,-20.25c-5.72818,-4.316376 -11.682526,-7.856628 -18.15625,-10.9375l-5.59375,5.4375c5.801605,2.670776 11.150879,5.766602 16.3125,9.53125c6.696991,5.529266 11.784668,11.899902 15.71875,18.875c-7.137207,-3.938324 -15.218414,-6.857971 -22.53125,-9.5625c-4.188629,-1.424622 -8.354431,-2.717499 -12.625,-3.875l-1.8125,3.0625c4.085022,1.100952 8.063782,2.337952 12.0625,3.71875c8.1362,3.065308 16.042511,6.622864 23.5625,11c0.392792,0.228607 3.56543,3.070618 5.875,5.125c1.563263,4.017944 2.819794,8.226807 3.8125,12.5625c-4.124237,-1.578094 -13.204895,-4.866272 -16.71875,-5.71875c-3.568512,-0.730652 -7.066071,-1.262451 -10.6875,-1.65625l-0.8125,3.375c3.308533,0.359528 6.492371,0.850555 9.75,1.53125c6.696686,1.653259 12.89856,4.685791 19.34375,6.75c0.271149,1.450134 0.561005,2.895294 0.78125,4.375c0.56424,4.669098 1.033203,9.630066 1.125,14.59375l-1.15625,4.53125c-4.953003,-2.064819 -8.836243,-3.664917 -11.4375,-4.75c-12.997894,-5.371887 -26.100006,-10.102142 -39.84375,-13.1875l-3,6.15625c10.873657,2.354065 21.229858,6.082031 31.46875,10.28125c-4.573853,0.282043 -9.120239,0.770386 -13.71875,1.875c-1.074738,0.313477 -2.144012,0.624023 -3.21875,0.9375l2.03125,3.15625c0.975647,-0.281067 1.930603,-0.562683 2.90625,-0.84375c6.804749,-1.630219 13.735199,-1.883209 20.6875,-1.75c5.437225,2.026367 10.831818,3.429535 12.6875,8.125c-0.288635,7.420593 0.269836,13.036743 0.59375,20.40625c0.011688,0.590515 0.019592,3.154572 0.03125,5.71875c-4.231537,-3.331268 -12.112213,-8.940399 -14.375,-10.375c-4.666321,-2.78241 -9.360687,-5.411835 -14.1875,-7.90625l-2.9375,2.59375c4.669647,2.440613 9.21698,5.013153 13.71875,7.75c5.484924,3.56781 13.901459,9.302307 17.625,17.25c-1.180786,21.361053 -0.384949,33.660614 -0.75,56.375c-0.177216,9.159271 0.590851,19.250427 -1.15625,28.3125l11.53125,0c-1.74707,-9.062073 -1.010284,-19.153229 -1.1875,-28.3125c-0.387939,-24.139771 -1.743896,-35.975891 0.3125,-60.0625c0.003174,-0.030823 -0.003174,-0.062927 0,-0.09375c4.813446,-7.332703 10.753601,-15.6987 13.75,-19.25c6.444397,-6.936157 16.248291,-14.462341 24.40625,-19.3125l-6.59375,-5c-4.030151,2.427948 -7.806061,5.120087 -11.40625,8.03125c1.702118,-4.040985 3.572693,-8.542206 4.125,-10.15625l-3.5625,0.59375c-1.12619,3.011322 -4.223999,9.62442 -6.65625,15.125c-2.083313,1.942444 -4.239014,3.783936 -6.21875,5.875c-2.818726,3.230835 -3.12149,3.654755 -5.5625,6.53125c1.825836,-12.031311 4.389099,-23.930481 8.75,-35.34375c0.257751,-0.657166 0.573364,-1.285522 0.84375,-1.9375c3.912323,-1.899292 7.690765,-4.324341 11.09375,-6.28125c3.60318,-1.995697 7.236847,-3.82428 11,-5.5l-2.78125,-2.84375c-3.944519,1.737823 -7.774719,3.600067 -11.5625,5.65625c-1.416534,0.79483 -3.33432,2.009827 -5.125,3.125c4.049713,-8.41095 9.073608,-16.378815 14.625,-23.875c7.37561,-0.190918 14.62439,0.176056 21.84375,2l1.8125,-3.21875c-6.986725,-1.777191 -13.839417,-2.14801 -20.84375,-2.4375c4.680786,-5.899078 9.706146,-11.512115 14.71875,-17.125l-8.625,-3.5c-5.692963,6.382782 -11.473083,12.715576 -16.6875,19.5c-3.01004,4.015289 -5.787018,8.162109 -8.4375,12.40625c-0.087006,-5.591339 -0.074951,-11.188995 -0.125,-16.71875c-0.06485,-8.408051 -0.379852,-16.804016 -1.03125,-25.1875l-4.5,0.15625c0.656738,8.327667 0.939453,16.678162 0.875,25.03125c-0.077393,8.553497 0.221252,17.287689 -0.46875,25.84375c-2.0383,3.874695 -3.918091,7.845856 -5.53125,11.9375c-0.153381,-1.844574 -0.306885,-3.681549 -0.59375,-5.5c-1.129425,-6.248871 -2.641663,-12.240234 -4.5625,-17.96875c-0.853821,-8.682892 -1.938385,-17.183777 -3.4375,-25.8125c-1.34259,-7.898438 -2.517517,-15.763031 -3.1875,-23.75z"/>
   <path fill="#38a600" fill-rule="evenodd" stroke-width="1.0000000pt" id="path2432" d="m337.09964,349.065979a14.193667,14.193667 0 1 0 -28.387329,0a14.193667,14.193667 0 1 0 28.387329,0z"/>
   <use y="-51.097198" xlink:href="#path2432" x="99.355667" width="744.09448" id="use2461" height="1052.3622"/>
   <use y="42.581001" xlink:href="#path2432" x="48.258461" width="744.09448" id="use2462" height="1052.3622"/>
   <path fill="#2c8400" fill-rule="evenodd" stroke-width="1.0000000pt" id="path2463" d="m351.293243,278.097656a14.193667,14.193667 0 1 0 -28.387329,0a14.193667,14.193667 0 1 0 28.387329,0z"/>
   <use y="28.387329" xlink:href="#path2463" x="62.452141" width="744.09448" id="use2464" height="1052.3622"/>
   <use y="102.194397" xlink:href="#path2463" x="48.258469" width="744.09448" id="use2465" height="1052.3622"/>
   <path fill="#43c800" fill-rule="evenodd" stroke-width="1.0000000pt" id="path2466" d="m339.938354,297.968781a14.193667,14.193667 0 1 0 -28.387329,0a14.193667,14.193667 0 1 0 28.387329,0z"/>
   <use y="83.499107" xlink:href="#path2466" x="22.709869" width="744.09448" id="use2467" height="1052.3622"/>
   <use y="31.22607" xlink:href="#path2466" x="73.807068" width="744.09448" id="use2468" height="1052.3622"/>
   <use y="79.484543" xlink:href="#path2463" x="2.838733" width="744.09448" id="use2470" height="1052.3622"/>
   <use y="22.709869" xlink:href="#path2432" x="48.258469" width="744.09448" id="use2471" height="1052.3622"/>
   <use y="45.419731" xlink:href="#path2466" x="36.90353" width="744.09448" id="use2472" height="1052.3622"/>
   <use y="45.419731" xlink:href="#path2463" x="2.838733" width="744.09448" id="use2473" height="1052.3622"/>
   <use y="11.35493" xlink:href="#path2432" x="79.484543" width="744.09448" id="use2474" height="1052.3622"/>
   <use y="-17.0324" xlink:href="#path2466" x="36.90353" width="744.09448" id="use2475" height="1052.3622"/>
   <use y="79.484528" xlink:href="#path2463" x="42.581001" width="744.09448" id="use2476" height="1052.3622"/>
   <use y="-14.19366" xlink:href="#path2432" x="56.774658" width="744.09448" id="use2477" height="1052.3622"/>
   <use y="14.19367" xlink:href="#path2432" x="35.24065" width="744.09448" id="use2478" height="1052.3622"/>
   <path fill="#47d900" fill-rule="evenodd" stroke-width="1.0000000pt" id="path2479" d="m362.648163,297.968781a14.193667,14.193667 0 1 0 -28.387329,0a14.193667,14.193667 0 1 0 28.387329,0z"/>
   <use y="17.0324" xlink:href="#path2479" x="65.290871" width="744.09448" id="use2481" height="1052.3622"/>
   <use y="0" xlink:href="#path2463" x="48.258469" width="744.09448" id="use2482" height="1052.3622"/>
   <use y="25.548611" xlink:href="#path2466" x="31.22607" width="744.09448" id="use2483" height="1052.3622"/>
   <use y="-45.419731" xlink:href="#path2432" x="45.419731" width="744.09448" id="use2484" height="1052.3622"/>
   <use y="19.87113" xlink:href="#path2466" x="53.935928" width="744.09448" id="use2485" height="1052.3622"/>
   <use y="-5.677467" xlink:href="#path2479" x="36.90353" width="744.09448" id="use2486" height="1052.3622"/>
  </g>
  <g id="svg_109" transform="matrix(1.42929 0 0 1.42929 -159.947 -161.466)">
   <path id="svg_110" fill="#000000" fill-opacity="0.75" fill-rule="nonzero" stroke-width="1.0000000pt" d="m476.472778,292.884491l-4.53125,0.15625c0.651001,8.033752 1.764557,15.975739 3,23.9375c0.548401,3.496368 1.163849,7.095428 1.6875,10.6875c-4.14151,-7.430145 -9.467896,-14.249817 -16.53125,-20.25c-5.72818,-4.316376 -11.682526,-7.856628 -18.15625,-10.9375l-5.59375,5.4375c5.801605,2.670776 11.150879,5.766602 16.3125,9.53125c6.696991,5.529266 11.784668,11.899902 15.71875,18.875c-7.137207,-3.938324 -15.218414,-6.857971 -22.53125,-9.5625c-4.188629,-1.424622 -8.354431,-2.717499 -12.625,-3.875l-1.8125,3.0625c4.085022,1.100952 8.063782,2.337952 12.0625,3.71875c8.1362,3.065308 16.042511,6.622864 23.5625,11c0.392792,0.228607 3.56543,3.070618 5.875,5.125c1.563263,4.017944 2.819794,8.226807 3.8125,12.5625c-4.124237,-1.578094 -13.204895,-4.866272 -16.71875,-5.71875c-3.568512,-0.730652 -7.066071,-1.262451 -10.6875,-1.65625l-0.8125,3.375c3.308533,0.359528 6.492371,0.850555 9.75,1.53125c6.696686,1.653259 12.89856,4.685791 19.34375,6.75c0.271149,1.450134 0.561005,2.895294 0.78125,4.375c0.56424,4.669098 1.033203,9.630066 1.125,14.59375l-1.15625,4.53125c-4.953003,-2.064819 -8.836243,-3.664917 -11.4375,-4.75c-12.997894,-5.371887 -26.100006,-10.102142 -39.84375,-13.1875l-3,6.15625c10.873657,2.354065 21.229858,6.082031 31.46875,10.28125c-4.573853,0.282043 -9.120239,0.770386 -13.71875,1.875c-1.074738,0.313477 -2.144012,0.624023 -3.21875,0.9375l2.03125,3.15625c0.975647,-0.281067 1.930603,-0.562683 2.90625,-0.84375c6.804749,-1.630219 13.735199,-1.883209 20.6875,-1.75c5.437225,2.026367 10.831818,3.429535 12.6875,8.125c-0.288635,7.420593 0.269836,13.036743 0.59375,20.40625c0.011688,0.590515 0.019592,3.154572 0.03125,5.71875c-4.231537,-3.331268 -12.112213,-8.940399 -14.375,-10.375c-4.666321,-2.78241 -9.360687,-5.411835 -14.1875,-7.90625l-2.9375,2.59375c4.669647,2.440613 9.21698,5.013153 13.71875,7.75c5.484924,3.56781 13.901459,9.302307 17.625,17.25c-1.180786,21.361053 -0.384949,33.660614 -0.75,56.375c-0.177216,9.159271 0.590851,19.250427 -1.15625,28.3125l11.53125,0c-1.74707,-9.062073 -1.010284,-19.153229 -1.1875,-28.3125c-0.387939,-24.139771 -1.743896,-35.975891 0.3125,-60.0625c0.003174,-0.030823 -0.003174,-0.062927 0,-0.09375c4.813446,-7.332703 10.753601,-15.6987 13.75,-19.25c6.444397,-6.936157 16.248291,-14.462341 24.40625,-19.3125l-6.59375,-5c-4.030151,2.427948 -7.806061,5.120087 -11.40625,8.03125c1.702118,-4.040985 3.572693,-8.542206 4.125,-10.15625l-3.5625,0.59375c-1.12619,3.011322 -4.223999,9.62442 -6.65625,15.125c-2.083313,1.942444 -4.239014,3.783936 -6.21875,5.875c-2.818726,3.230835 -3.12149,3.654755 -5.5625,6.53125c1.825836,-12.031311 4.389099,-23.930481 8.75,-35.34375c0.257751,-0.657166 0.573364,-1.285522 0.84375,-1.9375c3.912323,-1.899292 7.690765,-4.324341 11.09375,-6.28125c3.60321,-1.995697 7.236877,-3.82428 11,-5.5l-2.78125,-2.84375c-3.944519,1.737823 -7.774719,3.600067 -11.5625,5.65625c-1.416534,0.79483 -3.33432,2.009827 -5.125,3.125c4.049713,-8.41095 9.073608,-16.378815 14.625,-23.875c7.37561,-0.190918 14.62439,0.176056 21.84375,2l1.8125,-3.21875c-6.986694,-1.777191 -13.839417,-2.14801 -20.84375,-2.4375c4.680786,-5.899078 9.706177,-11.512115 14.71875,-17.125l-8.625,-3.5c-5.692932,6.382782 -11.473083,12.715576 -16.6875,19.5c-3.01004,4.015289 -5.787018,8.162109 -8.4375,12.40625c-0.087006,-5.591339 -0.074951,-11.188995 -0.125,-16.71875c-0.06485,-8.408051 -0.379852,-16.804016 -1.03125,-25.1875l-4.5,0.15625c0.656738,8.327667 0.939453,16.678162 0.875,25.03125c-0.077393,8.553497 0.221252,17.287689 -0.46875,25.84375c-2.0383,3.874695 -3.918091,7.845856 -5.53125,11.9375c-0.153381,-1.844574 -0.306885,-3.681549 -0.59375,-5.5c-1.129425,-6.248871 -2.641663,-12.240234 -4.5625,-17.96875c-0.853821,-8.682892 -1.938385,-17.183777 -3.4375,-25.8125c-1.34259,-7.898438 -2.517517,-15.763031 -3.1875,-23.75z"/>
   <path id="svg_111" fill="#38a600" fill-rule="evenodd" stroke-width="1.0000000pt" d="m449.197845,370.98172a14.19367,14.19367 0 1 0 -28.387329,0a14.19367,14.19367 0 1 0 28.387329,0z"/>
   <use id="svg_112" y="-29.181442" xlink:href="#path2432" x="211.453869" width="744.09448" height="1052.3622"/>
   <use id="svg_113" y="64.496758" xlink:href="#path2432" x="160.356663" width="744.09448" height="1052.3622"/>
   <path id="svg_114" fill="#2c8400" fill-rule="evenodd" stroke-width="1.0000000pt" d="m463.391449,300.013397a14.19367,14.19367 0 1 0 -28.387329,0a14.19367,14.19367 0 1 0 28.387329,0z"/>
   <use id="svg_115" y="50.303086" xlink:href="#path2463" x="174.550343" width="744.09448" height="1052.3622"/>
   <use id="svg_116" y="124.110154" xlink:href="#path2463" x="160.35667" width="744.09448" height="1052.3622"/>
   <path id="svg_117" fill="#43c800" fill-rule="evenodd" stroke-width="1.0000000pt" d="m452.03656,319.884521a14.19367,14.19367 0 1 0 -28.387329,0a14.19367,14.19367 0 1 0 28.387329,0z"/>
   <use id="svg_118" y="105.414864" xlink:href="#path2466" x="134.808071" width="744.09448" height="1052.3622"/>
   <use id="svg_119" y="53.141827" xlink:href="#path2466" x="185.90527" width="744.09448" height="1052.3622"/>
   <use id="svg_120" y="101.4003" xlink:href="#path2463" x="114.936935" width="744.09448" height="1052.3622"/>
   <use id="svg_121" y="44.625626" xlink:href="#path2432" x="160.35667" width="744.09448" height="1052.3622"/>
   <use id="svg_122" y="67.335488" xlink:href="#path2466" x="149.001732" width="744.09448" height="1052.3622"/>
   <use id="svg_123" y="67.335488" xlink:href="#path2463" x="114.936935" width="744.09448" height="1052.3622"/>
   <use id="svg_124" y="33.270687" xlink:href="#path2432" x="191.582745" width="744.09448" height="1052.3622"/>
   <use id="svg_125" y="4.883357" xlink:href="#path2466" x="149.001732" width="744.09448" height="1052.3622"/>
   <use id="svg_126" y="101.400284" xlink:href="#path2463" x="154.679203" width="744.09448" height="1052.3622"/>
   <use id="svg_127" y="7.722097" xlink:href="#path2432" x="168.87286" width="744.09448" height="1052.3622"/>
   <use id="svg_128" y="36.109427" xlink:href="#path2432" x="147.338852" width="744.09448" height="1052.3622"/>
   <path id="svg_129" fill="#47d900" fill-rule="evenodd" stroke-width="1.0000000pt" d="m474.746368,319.884521a14.19367,14.19367 0 1 0 -28.387329,0a14.19367,14.19367 0 1 0 28.387329,0z"/>
   <use id="svg_130" y="38.948157" xlink:href="#path2479" x="177.389072" width="744.09448" height="1052.3622"/>
   <use id="svg_131" y="21.915757" xlink:href="#path2463" x="160.35667" width="744.09448" height="1052.3622"/>
   <use id="svg_132" y="47.464367" xlink:href="#path2466" x="143.324272" width="744.09448" height="1052.3622"/>
   <use id="svg_133" y="-23.503974" xlink:href="#path2432" x="157.517933" width="744.09448" height="1052.3622"/>
   <use id="svg_134" y="41.786887" xlink:href="#path2466" x="166.03413" width="744.09448" height="1052.3622"/>
   <use id="svg_135" y="16.23829" xlink:href="#path2479" x="149.001732" width="744.09448" height="1052.3622"/>
  </g>
  <g id="svg_190" transform="matrix(1.42929 0 0 1.42929 -159.947 -161.466)">
   <path id="svg_191" fill="#000000" fill-opacity="0.75" fill-rule="nonzero" stroke-width="1.0000000pt" d="m520.550598,273.294373l-4.53125,0.15625c0.651001,8.033752 1.764587,15.975739 3,23.9375c0.548401,3.496368 1.163879,7.095428 1.6875,10.6875c-4.141479,-7.430145 -9.467865,-14.249817 -16.53125,-20.25c-5.728149,-4.316376 -11.682526,-7.856628 -18.156219,-10.9375l-5.59375,5.4375c5.801575,2.670776 11.150848,5.766602 16.3125,9.53125c6.69696,5.529266 11.784637,11.899902 15.718719,18.875c-7.137207,-3.938324 -15.218384,-6.857971 -22.53125,-9.5625c-4.188629,-1.424622 -8.354431,-2.717499 -12.624969,-3.875l-1.812531,3.0625c4.085022,1.100952 8.063812,2.337952 12.0625,3.71875c8.13623,3.065308 16.042542,6.622864 23.5625,11c0.392822,0.228607 3.56543,3.070618 5.875,5.125c1.563293,4.017944 2.819824,8.226807 3.8125,12.5625c-4.124207,-1.578094 -13.204895,-4.866272 -16.718719,-5.71875c-3.568512,-0.730652 -7.066101,-1.262451 -10.687531,-1.65625l-0.8125,3.375c3.308533,0.359528 6.492401,0.850555 9.75,1.53125c6.696716,1.653259 12.89856,4.685791 19.34375,6.75c0.271179,1.450134 0.561035,2.895294 0.78125,4.375c0.56427,4.669098 1.033203,9.630066 1.125,14.59375l-1.15625,4.53125c-4.953003,-2.064819 -8.836243,-3.664917 -11.437469,-4.75c-12.997894,-5.371887 -26.100006,-10.102142 -39.843781,-13.1875l-3,6.15625c10.873657,2.354065 21.229889,6.082031 31.468781,10.28125c-4.573883,0.282043 -9.12027,0.770386 -13.718781,1.875c-1.074707,0.313477 -2.143982,0.624023 -3.21875,0.9375l2.03125,3.15625c0.975647,-0.281067 1.930634,-0.562683 2.906281,-0.84375c6.804718,-1.630219 13.735168,-1.883209 20.6875,-1.75c5.437225,2.026367 10.831818,3.429535 12.687469,8.125c-0.288635,7.420593 0.269836,13.036743 0.59375,20.40625c0.011719,0.590515 0.019592,3.154572 0.03125,5.71875c-4.231506,-3.331268 -12.112213,-8.940399 -14.375,-10.375c-4.666321,-2.78241 -9.360657,-5.411835 -14.1875,-7.90625l-2.9375,2.59375c4.669647,2.440613 9.21701,5.013153 13.718781,7.75c5.484894,3.56781 13.901459,9.302307 17.624969,17.25c-1.180786,21.361053 -0.384949,33.660614 -0.75,56.375c-0.177185,9.159271 0.590881,19.250427 -1.15625,28.3125l11.53125,0c-1.74707,-9.062073 -1.010254,-19.153229 -1.1875,-28.3125c-0.387939,-24.139771 -1.743896,-35.975891 0.3125,-60.0625c0.003174,-0.030823 -0.003174,-0.062927 0,-0.09375c4.813477,-7.332703 10.753601,-15.6987 13.75,-19.25c6.444397,-6.936157 16.248291,-14.462341 24.40625,-19.3125l-6.59375,-5c-4.030151,2.427948 -7.80603,5.120087 -11.40625,8.03125c1.702148,-4.040985 3.572693,-8.542206 4.125,-10.15625l-3.5625,0.59375c-1.12616,3.011322 -4.223999,9.62442 -6.65625,15.125c-2.083313,1.942444 -4.239014,3.783936 -6.21875,5.875c-2.818726,3.230835 -3.12146,3.654755 -5.5625,6.53125c1.825867,-12.031311 4.389099,-23.930481 8.75,-35.34375c0.257751,-0.657166 0.573364,-1.285522 0.84375,-1.9375c3.912354,-1.899292 7.690796,-4.324341 11.09375,-6.28125c3.60321,-1.995697 7.236877,-3.82428 11,-5.5l-2.78125,-2.84375c-3.944519,1.737823 -7.774719,3.600067 -11.5625,5.65625c-1.416504,0.79483 -3.33429,2.009827 -5.125,3.125c4.049744,-8.41095 9.073608,-16.378815 14.625,-23.875c7.37561,-0.190918 14.62439,0.176056 21.84375,2l1.8125,-3.21875c-6.986694,-1.777191 -13.839417,-2.14801 -20.84375,-2.4375c4.680786,-5.899078 9.706177,-11.512115 14.71875,-17.125l-8.625,-3.5c-5.692932,6.382782 -11.473083,12.715576 -16.6875,19.5c-3.01001,4.015289 -5.786987,8.162109 -8.4375,12.40625c-0.086975,-5.591339 -0.074951,-11.188995 -0.125,-16.71875c-0.064819,-8.408051 -0.379822,-16.804016 -1.03125,-25.1875l-4.5,0.15625c0.656738,8.327667 0.939453,16.678162 0.875,25.03125c-0.077393,8.553497 0.221252,17.287689 -0.46875,25.84375c-2.038269,3.874695 -3.918091,7.845856 -5.53125,11.9375c-0.153381,-1.844574 -0.306885,-3.681549 -0.59375,-5.5c-1.129395,-6.248871 -2.641663,-12.240234 -4.5625,-17.96875c-0.853821,-8.682892 -1.938354,-17.183777 -3.4375,-25.8125c-1.34259,-7.898438 -2.517517,-15.763031 -3.1875,-23.75z"/>
   <path id="svg_192" fill="#38a600" fill-rule="evenodd" stroke-width="1.0000000pt" d="m493.275696,351.391602a14.19367,14.19367 0 1 0 -28.387329,0a14.19367,14.19367 0 1 0 28.387329,0z"/>
   <use id="svg_193" y="-48.771587" xlink:href="#path2432" x="255.531696" width="744.09448" height="1052.3622"/>
   <use id="svg_194" y="44.906613" xlink:href="#path2432" x="204.43449" width="744.09448" height="1052.3622"/>
   <path id="svg_195" fill="#2c8400" fill-rule="evenodd" stroke-width="1.0000000pt" d="m507.469299,280.423279a14.19367,14.19367 0 1 0 -28.387329,0a14.19367,14.19367 0 1 0 28.387329,0z"/>
   <use id="svg_196" y="30.712941" xlink:href="#path2463" x="218.62817" width="744.09448" height="1052.3622"/>
   <use id="svg_197" y="104.520009" xlink:href="#path2463" x="204.434498" width="744.09448" height="1052.3622"/>
   <path id="svg_198" fill="#43c800" fill-rule="evenodd" stroke-width="1.0000000pt" d="m496.11438,300.294403a14.19367,14.19367 0 1 0 -28.387299,0a14.19367,14.19367 0 1 0 28.387299,0z"/>
   <use id="svg_199" y="85.824719" xlink:href="#path2466" x="178.885899" width="744.09448" height="1052.3622"/>
   <use id="svg_200" y="33.551682" xlink:href="#path2466" x="229.983097" width="744.09448" height="1052.3622"/>
   <use id="svg_201" y="81.810154" xlink:href="#path2463" x="159.014762" width="744.09448" height="1052.3622"/>
   <use id="svg_202" y="25.035481" xlink:href="#path2432" x="204.434498" width="744.09448" height="1052.3622"/>
   <use id="svg_203" y="47.745343" xlink:href="#path2466" x="193.079559" width="744.09448" height="1052.3622"/>
   <use id="svg_204" y="47.745343" xlink:href="#path2463" x="159.014762" width="744.09448" height="1052.3622"/>
   <use id="svg_205" y="13.680542" xlink:href="#path2432" x="235.660572" width="744.09448" height="1052.3622"/>
   <use id="svg_206" y="-14.706789" xlink:href="#path2466" x="193.079559" width="744.09448" height="1052.3622"/>
   <use id="svg_207" y="81.810139" xlink:href="#path2463" x="198.75703" width="744.09448" height="1052.3622"/>
   <use id="svg_208" y="-11.868048" xlink:href="#path2432" x="212.950687" width="744.09448" height="1052.3622"/>
   <use id="svg_209" y="16.519282" xlink:href="#path2432" x="191.416679" width="744.09448" height="1052.3622"/>
   <path id="svg_210" fill="#47d900" fill-rule="evenodd" stroke-width="1.0000000pt" d="m518.824219,300.294403a14.19367,14.19367 0 1 0 -28.387329,0a14.19367,14.19367 0 1 0 28.387329,0z"/>
   <use id="svg_211" y="19.358012" xlink:href="#path2479" x="221.4669" width="744.09448" height="1052.3622"/>
   <use id="svg_212" y="2.325612" xlink:href="#path2463" x="204.434498" width="744.09448" height="1052.3622"/>
   <use id="svg_213" y="27.874222" xlink:href="#path2466" x="187.4021" width="744.09448" height="1052.3622"/>
   <use id="svg_214" y="-43.09412" xlink:href="#path2432" x="201.59576" width="744.09448" height="1052.3622"/>
   <use id="svg_215" y="22.196742" xlink:href="#path2466" x="210.111958" width="744.09448" height="1052.3622"/>
   <use id="svg_216" y="-3.351855" xlink:href="#path2479" x="193.079559" width="744.09448" height="1052.3622"/>
  </g>
  <g id="svg_136" transform="matrix(1.42929 0 0 1.42929 -159.947 -161.466)">
   <path id="svg_137" fill="#000000" fill-opacity="0.75" fill-rule="nonzero" stroke-width="1.0000000pt" d="m210.606522,284.488739l-4.53125,0.15625c0.651001,8.033752 1.764557,15.975739 3,23.9375c0.548401,3.496368 1.163849,7.095428 1.6875,10.6875c-4.14151,-7.430145 -9.467896,-14.249817 -16.53125,-20.25c-5.72818,-4.316376 -11.682526,-7.856628 -18.15625,-10.9375l-5.59375,5.4375c5.801605,2.670776 11.150879,5.766602 16.3125,9.53125c6.696991,5.529266 11.784668,11.899902 15.71875,18.875c-7.137207,-3.938324 -15.218414,-6.857971 -22.53125,-9.5625c-4.188629,-1.424622 -8.354431,-2.717499 -12.625,-3.875l-1.8125,3.0625c4.085022,1.100952 8.063782,2.337952 12.0625,3.71875c8.1362,3.065308 16.042511,6.622864 23.5625,11c0.392792,0.228607 3.56543,3.070618 5.875,5.125c1.563263,4.017944 2.819794,8.226807 3.8125,12.5625c-4.124237,-1.578094 -13.204895,-4.866272 -16.71875,-5.71875c-3.568512,-0.730652 -7.066071,-1.262451 -10.6875,-1.65625l-0.8125,3.375c3.308533,0.359528 6.492371,0.850555 9.75,1.53125c6.696686,1.653259 12.89856,4.685791 19.34375,6.75c0.271149,1.450134 0.561005,2.895294 0.78125,4.375c0.56424,4.669098 1.033203,9.630066 1.125,14.59375l-1.15625,4.53125c-4.953003,-2.064819 -8.836243,-3.664917 -11.4375,-4.75c-12.997894,-5.371887 -26.100006,-10.102142 -39.84375,-13.1875l-3,6.15625c10.873657,2.354065 21.229858,6.082031 31.46875,10.28125c-4.573853,0.282043 -9.120239,0.770386 -13.71875,1.875c-1.074738,0.313477 -2.144012,0.624023 -3.21875,0.9375l2.03125,3.15625c0.975647,-0.281067 1.930603,-0.562683 2.90625,-0.84375c6.804749,-1.630219 13.735199,-1.883209 20.6875,-1.75c5.437225,2.026367 10.831818,3.429535 12.6875,8.125c-0.288635,7.420593 0.269836,13.036743 0.59375,20.40625c0.011688,0.590515 0.019592,3.154572 0.03125,5.71875c-4.231537,-3.331268 -12.112213,-8.940399 -14.375,-10.375c-4.666321,-2.78241 -9.360687,-5.411835 -14.1875,-7.90625l-2.9375,2.59375c4.669647,2.440613 9.21698,5.013153 13.71875,7.75c5.484924,3.56781 13.901459,9.302307 17.625,17.25c-1.180786,21.361053 -0.384949,33.660614 -0.75,56.375c-0.177216,9.159271 0.590851,19.250427 -1.15625,28.3125l11.53125,0c-1.74707,-9.062073 -1.010284,-19.153229 -1.1875,-28.3125c-0.387939,-24.139771 -1.743896,-35.975891 0.3125,-60.0625c0.003174,-0.030823 -0.003174,-0.062927 0,-0.09375c4.813446,-7.332703 10.753601,-15.6987 13.75,-19.25c6.444397,-6.936157 16.248291,-14.462341 24.406235,-19.3125l-6.593735,-5c-4.030151,2.427948 -7.806061,5.120087 -11.40625,8.03125c1.702118,-4.040985 3.572693,-8.542206 4.125,-10.15625l-3.5625,0.59375c-1.12619,3.011322 -4.223999,9.62442 -6.65625,15.125c-2.083313,1.942444 -4.239014,3.783936 -6.21875,5.875c-2.818726,3.230835 -3.12149,3.654755 -5.5625,6.53125c1.825836,-12.031311 4.389099,-23.930481 8.75,-35.34375c0.257751,-0.657166 0.573364,-1.285522 0.84375,-1.9375c3.912323,-1.899292 7.690765,-4.324341 11.09375,-6.28125c3.60318,-1.995697 7.236847,-3.82428 11,-5.5l-2.78125,-2.84375c-3.944519,1.737823 -7.774719,3.600067 -11.5625,5.65625c-1.416534,0.79483 -3.33432,2.009827 -5.125,3.125c4.049713,-8.41095 9.073608,-16.378815 14.625,-23.875c7.375595,-0.190918 14.624405,0.176056 21.843735,2l1.812531,-3.21875c-6.986725,-1.777191 -13.839447,-2.14801 -20.843765,-2.4375c4.680771,-5.899078 9.706161,-11.512115 14.718765,-17.125l-8.625,-3.5c-5.692978,6.382782 -11.473099,12.715576 -16.687515,19.5c-3.01004,4.015289 -5.787018,8.162109 -8.4375,12.40625c-0.087006,-5.591339 -0.074951,-11.188995 -0.125,-16.71875c-0.06485,-8.408051 -0.379852,-16.804016 -1.03125,-25.1875l-4.5,0.15625c0.656738,8.327667 0.939453,16.678162 0.875,25.03125c-0.077393,8.553497 0.221252,17.287689 -0.46875,25.84375c-2.0383,3.874695 -3.918091,7.845856 -5.53125,11.9375c-0.153381,-1.844574 -0.306885,-3.681549 -0.59375,-5.5c-1.129425,-6.248871 -2.641663,-12.240234 -4.5625,-17.96875c-0.853821,-8.682892 -1.938385,-17.183777 -3.4375,-25.8125c-1.34259,-7.898438 -2.517517,-15.763031 -3.1875,-23.75z"/>
   <path id="svg_138" fill="#38a600" fill-rule="evenodd" stroke-width="1.0000000pt" d="m183.331589,362.585968a14.19367,14.19367 0 1 0 -28.387329,0a14.19367,14.19367 0 1 0 28.387329,0z"/>
   <use id="svg_139" y="-37.577218" xlink:href="#path2432" x="-54.412395" width="744.09448" height="1052.3622"/>
   <use id="svg_140" y="56.100982" xlink:href="#path2432" x="-105.509602" width="744.09448" height="1052.3622"/>
   <path id="svg_141" fill="#2c8400" fill-rule="evenodd" stroke-width="1.0000000pt" d="m197.525192,291.617645a14.19367,14.19367 0 1 0 -28.387329,0a14.19367,14.19367 0 1 0 28.387329,0z"/>
   <use id="svg_142" y="41.90731" xlink:href="#path2463" x="-91.315922" width="744.09448" height="1052.3622"/>
   <use id="svg_143" y="115.714377" xlink:href="#path2463" x="-105.509594" width="744.09448" height="1052.3622"/>
   <path id="svg_144" fill="#43c800" fill-rule="evenodd" stroke-width="1.0000000pt" d="m186.170303,311.48877a14.19367,14.19367 0 1 0 -28.387329,0a14.19367,14.19367 0 1 0 28.387329,0z"/>
   <use id="svg_145" y="97.019088" xlink:href="#path2466" x="-131.058193" width="744.09448" height="1052.3622"/>
   <use id="svg_146" y="44.746051" xlink:href="#path2466" x="-79.960995" width="744.09448" height="1052.3622"/>
   <use id="svg_147" y="93.004523" xlink:href="#path2463" x="-150.92933" width="744.09448" height="1052.3622"/>
   <use id="svg_148" y="36.22985" xlink:href="#path2432" x="-105.509594" width="744.09448" height="1052.3622"/>
   <use id="svg_149" y="58.939712" xlink:href="#path2466" x="-116.864532" width="744.09448" height="1052.3622"/>
   <use id="svg_150" y="58.939712" xlink:href="#path2463" x="-150.92933" width="744.09448" height="1052.3622"/>
   <use id="svg_151" y="24.87491" xlink:href="#path2432" x="-74.28352" width="744.09448" height="1052.3622"/>
   <use id="svg_152" y="-3.51242" xlink:href="#path2466" x="-116.864532" width="744.09448" height="1052.3622"/>
   <use id="svg_153" y="93.004508" xlink:href="#path2463" x="-111.187061" width="744.09448" height="1052.3622"/>
   <use id="svg_154" y="-0.673679" xlink:href="#path2432" x="-96.993404" width="744.09448" height="1052.3622"/>
   <use id="svg_155" y="27.713651" xlink:href="#path2432" x="-118.527412" width="744.09448" height="1052.3622"/>
   <path id="svg_156" fill="#47d900" fill-rule="evenodd" stroke-width="1.0000000pt" d="m208.880112,311.48877a14.19367,14.19367 0 1 0 -28.387329,0a14.19367,14.19367 0 1 0 28.387329,0z"/>
   <use id="svg_157" y="30.552381" xlink:href="#path2479" x="-88.477192" width="744.09448" height="1052.3622"/>
   <use id="svg_158" y="13.51998" xlink:href="#path2463" x="-105.509594" width="744.09448" height="1052.3622"/>
   <use id="svg_159" y="39.068591" xlink:href="#path2466" x="-122.541992" width="744.09448" height="1052.3622"/>
   <use id="svg_160" y="-31.899751" xlink:href="#path2432" x="-108.348331" width="744.09448" height="1052.3622"/>
   <use id="svg_161" y="33.39111" xlink:href="#path2466" x="-99.832134" width="744.09448" height="1052.3622"/>
   <use id="svg_162" y="7.842514" xlink:href="#path2479" x="-116.864532" width="744.09448" height="1052.3622"/>
  </g>
  <g id="svg_217" transform="matrix(1.42929 0 0 1.42929 -159.947 -161.466)">
   <path id="svg_218" fill="#000000" fill-opacity="0.75" fill-rule="nonzero" stroke-width="1.0000000pt" d="m423.999176,326.46759l-4.53125,0.15625c0.651001,8.033752 1.764557,15.975739 3,23.9375c0.548401,3.496368 1.163849,7.095428 1.6875,10.6875c-4.14151,-7.430145 -9.467896,-14.249817 -16.53125,-20.25c-5.72818,-4.316376 -11.682526,-7.856628 -18.15625,-10.9375l-5.59375,5.4375c5.801605,2.670776 11.150879,5.766602 16.3125,9.53125c6.696991,5.529266 11.784668,11.899902 15.71875,18.875c-7.137207,-3.938324 -15.218414,-6.857971 -22.53125,-9.5625c-4.188629,-1.424622 -8.354431,-2.717499 -12.625,-3.875l-1.8125,3.0625c4.085022,1.100952 8.063782,2.337952 12.0625,3.71875c8.1362,3.065308 16.042511,6.622864 23.5625,11c0.392792,0.228607 3.56543,3.070618 5.875,5.125c1.563263,4.017944 2.819794,8.226807 3.8125,12.5625c-4.124237,-1.578094 -13.204895,-4.866272 -16.71875,-5.71875c-3.568512,-0.730652 -7.066071,-1.262451 -10.6875,-1.65625l-0.8125,3.375c3.308533,0.359528 6.492371,0.850555 9.75,1.53125c6.696686,1.653259 12.89856,4.685791 19.34375,6.75c0.271149,1.450134 0.561005,2.895294 0.78125,4.375c0.56424,4.669098 1.033203,9.630066 1.125,14.59375l-1.15625,4.53125c-4.953003,-2.064819 -8.836243,-3.664917 -11.4375,-4.75c-12.997894,-5.371887 -26.100006,-10.102142 -39.84375,-13.1875l-3,6.15625c10.873657,2.354065 21.229858,6.082031 31.46875,10.28125c-4.573853,0.282043 -9.120239,0.770386 -13.71875,1.875c-1.074738,0.313477 -2.144012,0.624023 -3.21875,0.9375l2.03125,3.15625c0.975647,-0.281067 1.930603,-0.562683 2.90625,-0.84375c6.804749,-1.630219 13.735199,-1.883209 20.6875,-1.75c5.437225,2.026367 10.831818,3.429535 12.6875,8.125c-0.288635,7.420593 0.269836,13.036743 0.59375,20.40625c0.011688,0.590515 0.019592,3.154572 0.03125,5.71875c-4.231537,-3.331268 -12.112213,-8.940399 -14.375,-10.375c-4.666321,-2.78241 -9.360687,-5.411835 -14.1875,-7.90625l-2.9375,2.59375c4.669647,2.440613 9.21698,5.013153 13.71875,7.75c5.484924,3.56781 13.901459,9.302307 17.625,17.25c-1.180786,21.361053 -0.384949,33.660614 -0.75,56.375c-0.177216,9.159302 0.590851,19.250427 -1.15625,28.3125l11.53125,0c-1.74707,-9.062073 -1.010284,-19.153198 -1.1875,-28.3125c-0.387939,-24.139771 -1.743896,-35.975891 0.3125,-60.0625c0.003174,-0.030823 -0.003174,-0.062927 0,-0.09375c4.813446,-7.332703 10.753601,-15.6987 13.75,-19.25c6.444397,-6.936157 16.248291,-14.462341 24.40625,-19.3125l-6.59375,-5c-4.030151,2.427948 -7.806061,5.120087 -11.40625,8.03125c1.702118,-4.040985 3.572693,-8.542206 4.125,-10.15625l-3.5625,0.59375c-1.12619,3.011322 -4.223999,9.62442 -6.65625,15.125c-2.083313,1.942444 -4.239014,3.783936 -6.21875,5.875c-2.818726,3.230835 -3.12149,3.654755 -5.5625,6.53125c1.825836,-12.031311 4.389099,-23.930481 8.75,-35.34375c0.257751,-0.657166 0.573364,-1.285522 0.84375,-1.9375c3.912323,-1.899292 7.690765,-4.324341 11.09375,-6.28125c3.60318,-1.995697 7.236847,-3.82428 11,-5.5l-2.78125,-2.84375c-3.944519,1.737823 -7.774719,3.600067 -11.5625,5.65625c-1.416534,0.79483 -3.33432,2.009827 -5.125,3.125c4.049713,-8.41095 9.073608,-16.378815 14.625,-23.875c7.37561,-0.190918 14.62439,0.176056 21.84375,2l1.8125,-3.21875c-6.986725,-1.777191 -13.839417,-2.14801 -20.84375,-2.4375c4.680786,-5.899078 9.706146,-11.512115 14.71875,-17.125l-8.625,-3.5c-5.692963,6.382782 -11.473083,12.715576 -16.6875,19.5c-3.01004,4.015289 -5.787018,8.162109 -8.4375,12.40625c-0.087006,-5.591339 -0.074951,-11.188995 -0.125,-16.71875c-0.06485,-8.408051 -0.379852,-16.804016 -1.03125,-25.1875l-4.5,0.15625c0.656738,8.327667 0.939453,16.678162 0.875,25.03125c-0.077393,8.553497 0.221252,17.287689 -0.46875,25.84375c-2.0383,3.874695 -3.918091,7.845856 -5.53125,11.9375c-0.153381,-1.844574 -0.306885,-3.681549 -0.59375,-5.5c-1.129425,-6.248871 -2.641663,-12.240234 -4.5625,-17.96875c-0.853821,-8.682892 -1.938385,-17.183777 -3.4375,-25.8125c-1.34259,-7.898438 -2.517517,-15.763031 -3.1875,-23.75z"/>
   <path id="svg_219" fill="#38a600" fill-rule="evenodd" stroke-width="1.0000000pt" d="m396.724243,404.564819a14.19367,14.19367 0 1 0 -28.387329,0a14.19367,14.19367 0 1 0 28.387329,0z"/>
   <use id="svg_220" y="4.401663" xlink:href="#path2432" x="158.980263" width="744.09448" height="1052.3622"/>
   <use id="svg_221" y="98.079863" xlink:href="#path2432" x="107.883057" width="744.09448" height="1052.3622"/>
   <path id="svg_222" fill="#2c8400" fill-rule="evenodd" stroke-width="1.0000000pt" d="m410.917847,333.596497a14.19367,14.19367 0 1 0 -28.387329,0a14.19367,14.19367 0 1 0 28.387329,0z"/>
   <use id="svg_223" y="83.886191" xlink:href="#path2463" x="122.076737" width="744.09448" height="1052.3622"/>
   <use id="svg_224" y="157.693259" xlink:href="#path2463" x="107.883065" width="744.09448" height="1052.3622"/>
   <path id="svg_225" fill="#43c800" fill-rule="evenodd" stroke-width="1.0000000pt" d="m399.562958,353.467621a14.19367,14.19367 0 1 0 -28.387329,0a14.19367,14.19367 0 1 0 28.387329,0z"/>
   <use id="svg_226" y="138.997969" xlink:href="#path2466" x="82.334466" width="744.09448" height="1052.3622"/>
   <use id="svg_227" y="86.724932" xlink:href="#path2466" x="133.431664" width="744.09448" height="1052.3622"/>
   <use id="svg_228" y="134.983404" xlink:href="#path2463" x="62.463329" width="744.09448" height="1052.3622"/>
   <use id="svg_229" y="78.208731" xlink:href="#path2432" x="107.883065" width="744.09448" height="1052.3622"/>
   <use id="svg_230" y="100.918593" xlink:href="#path2466" x="96.528126" width="744.09448" height="1052.3622"/>
   <use id="svg_231" y="100.918593" xlink:href="#path2463" x="62.463329" width="744.09448" height="1052.3622"/>
   <use id="svg_232" y="66.853791" xlink:href="#path2432" x="139.109139" width="744.09448" height="1052.3622"/>
   <use id="svg_233" y="38.466461" xlink:href="#path2466" x="96.528126" width="744.09448" height="1052.3622"/>
   <use id="svg_234" y="134.983389" xlink:href="#path2463" x="102.205597" width="744.09448" height="1052.3622"/>
   <use id="svg_235" y="41.305202" xlink:href="#path2432" x="116.399254" width="744.09448" height="1052.3622"/>
   <use id="svg_236" y="69.692532" xlink:href="#path2432" x="94.865246" width="744.09448" height="1052.3622"/>
   <path id="svg_237" fill="#47d900" fill-rule="evenodd" stroke-width="1.0000000pt" d="m422.272766,353.467621a14.19367,14.19367 0 1 0 -28.387329,0a14.19367,14.19367 0 1 0 28.387329,0z"/>
   <use id="svg_238" y="72.531262" xlink:href="#path2479" x="124.915467" width="744.09448" height="1052.3622"/>
   <use id="svg_239" y="55.498862" xlink:href="#path2463" x="107.883065" width="744.09448" height="1052.3622"/>
   <use id="svg_240" y="81.047472" xlink:href="#path2466" x="90.850667" width="744.09448" height="1052.3622"/>
   <use id="svg_241" y="10.07913" xlink:href="#path2432" x="105.044327" width="744.09448" height="1052.3622"/>
   <use id="svg_242" y="75.369992" xlink:href="#path2466" x="113.560524" width="744.09448" height="1052.3622"/>
   <use id="svg_243" y="49.821395" xlink:href="#path2479" x="96.528126" width="744.09448" height="1052.3622"/>
  </g>
  <g id="svg_163" transform="matrix(1.42929 0 0 1.42929 -159.947 -161.466)">
   <path id="svg_164" fill="#000000" fill-opacity="0.75" fill-rule="nonzero" stroke-width="1.0000000pt" d="m288.267456,239.711227l-4.53125,0.156265c0.651001,8.033783 1.764557,15.975769 3,23.937531c0.548401,3.496368 1.163849,7.095428 1.6875,10.6875c-4.14151,-7.430145 -9.467896,-14.249847 -16.53125,-20.25c-5.72818,-4.316376 -11.682526,-7.856659 -18.156235,-10.9375l-5.59375,5.437469c5.801605,2.670761 11.150864,5.766602 16.312485,9.53125c6.696991,5.529297 11.784668,11.899933 15.71875,18.875031c-7.137207,-3.938324 -15.218414,-6.857971 -22.53125,-9.5625c-4.188614,-1.424622 -8.354416,-2.717499 -12.624985,-3.875l-1.8125,3.0625c4.085007,1.100952 8.063782,2.337952 12.0625,3.71875c8.136185,3.065308 16.042496,6.622864 23.562485,11c0.392792,0.228607 3.56543,3.070618 5.875,5.125c1.563263,4.017944 2.819794,8.226807 3.8125,12.5625c-4.124237,-1.578094 -13.204895,-4.866272 -16.71875,-5.71875c-3.568512,-0.730652 -7.066071,-1.262451 -10.6875,-1.65625l-0.8125,3.375c3.308533,0.359528 6.492371,0.850555 9.75,1.53125c6.696686,1.653259 12.89856,4.685791 19.34375,6.75c0.271149,1.450134 0.561005,2.895294 0.78125,4.375c0.56424,4.669098 1.033203,9.630066 1.125,14.59375l-1.15625,4.53125c-4.953003,-2.064819 -8.836243,-3.664917 -11.4375,-4.75c-12.997894,-5.371887 -26.099991,-10.102142 -39.84375,-13.1875l-3,6.15625c10.873672,2.354065 21.229858,6.082031 31.46875,10.28125c-4.573853,0.282043 -9.120239,0.770386 -13.718735,1.875c-1.074738,0.313477 -2.144012,0.624023 -3.21875,0.9375l2.03125,3.15625c0.975647,-0.281067 1.930603,-0.562683 2.90625,-0.84375c6.804733,-1.630219 13.735184,-1.883209 20.687485,-1.75c5.437225,2.026367 10.831818,3.429535 12.6875,8.125c-0.288635,7.420593 0.269836,13.036743 0.59375,20.40625c0.011688,0.590515 0.019592,3.154572 0.03125,5.71875c-4.231537,-3.331268 -12.112213,-8.940399 -14.375,-10.375c-4.666321,-2.78241 -9.360687,-5.411835 -14.1875,-7.90625l-2.9375,2.59375c4.669647,2.440613 9.21698,5.013153 13.71875,7.75c5.484924,3.56781 13.901459,9.302307 17.625,17.25c-1.180786,21.361053 -0.384949,33.660614 -0.75,56.375c-0.177216,9.159271 0.590851,19.250427 -1.15625,28.3125l11.53125,0c-1.74707,-9.062073 -1.010284,-19.153229 -1.1875,-28.3125c-0.387939,-24.139771 -1.743896,-35.975891 0.3125,-60.0625c0.003174,-0.030823 -0.003174,-0.062927 0,-0.09375c4.813446,-7.332703 10.753601,-15.6987 13.75,-19.25c6.444397,-6.936157 16.248291,-14.462341 24.40625,-19.3125l-6.59375,-5c-4.030151,2.427948 -7.806061,5.120087 -11.40625,8.03125c1.702118,-4.040985 3.572693,-8.542206 4.125,-10.15625l-3.5625,0.59375c-1.12619,3.011322 -4.223999,9.62442 -6.65625,15.125c-2.083313,1.942444 -4.239014,3.783936 -6.21875,5.875c-2.818726,3.230835 -3.12149,3.654755 -5.5625,6.53125c1.825836,-12.031311 4.389099,-23.930481 8.75,-35.34375c0.257751,-0.657166 0.573364,-1.285522 0.84375,-1.9375c3.912323,-1.899292 7.690765,-4.324341 11.09375,-6.28125c3.60318,-1.995697 7.236847,-3.82428 11,-5.5l-2.78125,-2.84375c-3.944519,1.737823 -7.774719,3.600067 -11.5625,5.65625c-1.416534,0.79483 -3.33432,2.009827 -5.125,3.125c4.049713,-8.41095 9.073608,-16.378815 14.625,-23.875c7.37561,-0.190918 14.62439,0.176056 21.84375,2l1.8125,-3.21875c-6.986725,-1.777191 -13.839417,-2.14801 -20.84375,-2.4375c4.680786,-5.899078 9.706146,-11.512115 14.71875,-17.125l-8.625,-3.500031c-5.692963,6.382813 -11.473083,12.715607 -16.6875,19.500031c-3.01004,4.015289 -5.787018,8.162109 -8.4375,12.40625c-0.087006,-5.591339 -0.074951,-11.188995 -0.125,-16.71875c-0.06485,-8.408051 -0.379852,-16.804016 -1.03125,-25.187531l-4.5,0.15625c0.656738,8.327698 0.939453,16.678192 0.875,25.031281c-0.077393,8.553497 0.221252,17.287689 -0.46875,25.84375c-2.0383,3.874695 -3.918091,7.845856 -5.53125,11.9375c-0.153381,-1.844574 -0.306885,-3.681549 -0.59375,-5.5c-1.129425,-6.248871 -2.641663,-12.240234 -4.5625,-17.96875c-0.853821,-8.682892 -1.938385,-17.183777 -3.4375,-25.8125c-1.34259,-7.898483 -2.517517,-15.763031 -3.1875,-23.750046z"/>
   <path id="svg_165" fill="#38a600" fill-rule="evenodd" stroke-width="1.0000000pt" d="m260.992523,317.808502a14.19367,14.19367 0 1 0 -28.387314,0a14.19367,14.19367 0 1 0 28.387314,0z"/>
   <use id="svg_166" y="-82.354691" xlink:href="#path2432" x="23.248543" width="744.09448" height="1052.3622"/>
   <use id="svg_167" y="11.323509" xlink:href="#path2432" x="-27.848663" width="744.09448" height="1052.3622"/>
   <path id="svg_168" fill="#2c8400" fill-rule="evenodd" stroke-width="1.0000000pt" d="m275.186127,246.840149a14.19367,14.19367 0 1 0 -28.387314,0a14.19367,14.19367 0 1 0 28.387314,0z"/>
   <use id="svg_169" y="-2.870163" xlink:href="#path2463" x="-13.654983" width="744.09448" height="1052.3622"/>
   <use id="svg_170" y="70.936904" xlink:href="#path2463" x="-27.848655" width="744.09448" height="1052.3622"/>
   <path id="svg_171" fill="#43c800" fill-rule="evenodd" stroke-width="1.0000000pt" d="m263.831238,266.711304a14.19367,14.19367 0 1 0 -28.387314,0a14.19367,14.19367 0 1 0 28.387314,0z"/>
   <use id="svg_172" y="52.241615" xlink:href="#path2466" x="-53.397254" width="744.09448" height="1052.3622"/>
   <use id="svg_173" y="-0.031422" xlink:href="#path2466" x="-2.300056" width="744.09448" height="1052.3622"/>
   <use id="svg_174" y="48.22705" xlink:href="#path2463" x="-73.268391" width="744.09448" height="1052.3622"/>
   <use id="svg_175" y="-8.547623" xlink:href="#path2432" x="-27.848655" width="744.09448" height="1052.3622"/>
   <use id="svg_176" y="14.162239" xlink:href="#path2466" x="-39.203594" width="744.09448" height="1052.3622"/>
   <use id="svg_177" y="14.162239" xlink:href="#path2463" x="-73.268391" width="744.09448" height="1052.3622"/>
   <use id="svg_178" y="-19.902563" xlink:href="#path2432" x="3.377419" width="744.09448" height="1052.3622"/>
   <use id="svg_179" y="-48.289893" xlink:href="#path2466" x="-39.203594" width="744.09448" height="1052.3622"/>
   <use id="svg_180" y="48.227035" xlink:href="#path2463" x="-33.526123" width="744.09448" height="1052.3622"/>
   <use id="svg_181" y="-45.451152" xlink:href="#path2432" x="-19.332466" width="744.09448" height="1052.3622"/>
   <use id="svg_182" y="-17.063822" xlink:href="#path2432" x="-40.866474" width="744.09448" height="1052.3622"/>
   <path id="svg_183" fill="#47d900" fill-rule="evenodd" stroke-width="1.0000000pt" d="m286.541046,266.711304a14.19367,14.19367 0 1 0 -28.387329,0a14.19367,14.19367 0 1 0 28.387329,0z"/>
   <use id="svg_184" y="-14.225092" xlink:href="#path2479" x="-10.816253" width="744.09448" height="1052.3622"/>
   <use id="svg_185" y="-31.257493" xlink:href="#path2463" x="-27.848655" width="744.09448" height="1052.3622"/>
   <use id="svg_186" y="-5.708882" xlink:href="#path2466" x="-44.881053" width="744.09448" height="1052.3622"/>
   <use id="svg_187" y="-76.677224" xlink:href="#path2432" x="-30.687393" width="744.09448" height="1052.3622"/>
   <use id="svg_188" y="-11.386363" xlink:href="#path2466" x="-22.171196" width="744.09448" height="1052.3622"/>
   <use id="svg_189" y="-36.934959" xlink:href="#path2479" x="-39.203594" width="744.09448" height="1052.3622"/>
  </g>
 </g>
</svg>